<svg xmlns="http://www.w3.org/2000/svg" data-name="Layer 1" viewBox="0 0 700 550"><path fill="#edf2fa" d="M486.41455,452.02219c22.746-6.268,40.968-13.793,54.741-30.849,20.997-25.999,18.186-57.461,17.823-60.914-2.60505-24.868-16.46405-42.723-20.092-47.282-10.846-13.627-17.981-14.454-25.518-28.742-7.423-14.07-8.027-27.529-8.271-34.622-.674-19.596,5.28-25.278,7.973-43.958,1.229-8.523,3.844-34.07-7.433-59.103-12.928-28.697-37.589-42.238-48.063-47.99-10.949-6.012-46.222-25.38-79.937-12.75-7.947,2.977-18.97,13.007-40.692,32.947-31.517,28.931-32.824,33.55-48.927,46.351-26.611,21.155-34.841,17.92-59.811,35.403-8.165,5.717-38.389,27.34-58.743,64.18-7.649,13.842-39.548,71.577-14.394,129.772,3.302,7.639,19.067,41.843,55.46,59.067,23.646,11.191,41.318,8.264,79.711,6.646,103.243-4.35,129.064,10.336,196.173-8.156"/><path fill="#e9a48a" d="M418.97806,140.70428c-2.464,1.796-1.618.337-5.214,1.268-3.907,1.011-3.731,3.365-7.993,4.889-1.21.433-2.781.467-5.82-.01-8.047-1.264-4.254-3.839-7.696-7.837-3.442-3.997,1.29-9.221,2.328-11.216,1.039-1.995,8.756-1.816,12.295-3.852a6.81269,6.81269,0,0,1,2.9-.897,4.515,4.515,0,0,1,4.815,5.625,4.94826,4.94826,0,0,1-2.4,2.834,17.09535,17.09535,0,0,0,3.778,3.111c3.935,2.377,7.278,2.154,7.623,3.783.273,1.283-4.424,2.162-4.616,2.302"/><path fill="#c58877" d="M415.97125 134.61938c-.541 1.272-1.114 2.414-1.542 3.604a13.48226 13.48226 0 00-.516 1.803 11.422 11.422 0 00-.149 1.946 3.80523 3.80523 0 01-.629-2.001 6.00764 6.00764 0 01.355-2.088 7.31225 7.31225 0 01.998-1.828 5.73919 5.73919 0 011.483-1.436M410.36285 137.13247a13.8328 13.8328 0 00-6.273 1.408 9.76352 9.76352 0 00-2.552 1.864 18.8413 18.8413 0 00-2.088 2.546 8.323 8.323 0 011.504-3.064 7.80366 7.80366 0 012.676-2.233 8.66384 8.66384 0 013.348-.945 8.159 8.159 0 013.385.424"/><path fill="#fcdfc2" d="M412.83936,135.81368s-4.759.423-6.551,1.197l-.37.144a4.18912,4.18912,0,0,0,1.619-1.019,12.03185,12.03185,0,0,1,4.926-2.829"/><path fill="#232321" d="M409.20465,135.32348c.077.514.755.839,1.514.726.758-.114,1.31-.624,1.233-1.139-.077-.514-.755-.839-1.514-.725-.757.114-1.31.623-1.233,1.138"/><path fill="#c58877" d="M408.817,128.50408c.759.675,1.456,1.409,2.159,2.145.342.376.678.758,1,1.161a5.068,5.068,0,0,1,.867,1.409.34119.34119,0,0,1-.202.438l-.01.003-.075.025a12.43421,12.43421,0,0,0-2.272,1.021,12.65823,12.65823,0,0,0-2.032,1.447,5.42763,5.42763,0,0,1-2.352,1.508,3.38628,3.38628,0,0,1-2.883-.539.39848.39848,0,0,1-.133-.17,10.2997,10.2997,0,0,1-.543-1.918,8.28452,8.28452,0,0,1-.16-1.977,5.47024,5.47024,0,0,1,.412-1.943,3.82525,3.82525,0,0,1,1.204-1.522,4.2627,4.2627,0,0,0-.896,1.631,5.974,5.974,0,0,0-.139,1.827,11.17372,11.17372,0,0,0,.928,3.545l-.133-.17a2.63232,2.63232,0,0,0,2.091.297,3.072,3.072,0,0,0,1.004-.501c.311-.221.593-.498.95-.811a11.66519,11.66519,0,0,1,2.238-1.517,11.09046,11.09046,0,0,1,2.531-.965l-.287.466a5.40148,5.40148,0,0,0-.639-1.202c-.266-.418-.558-.827-.849-1.236-.568-.831-1.189-1.626-1.779-2.452"/><path d="M283.88623,467.55248a27.3585,27.3585,0,1,0-27.358-27.358,27.35851,27.35851,0,0,0,27.358,27.358m0-47.041a19.68251,19.68251,0,1,1-19.683,19.683,19.68253,19.68253,0,0,1,19.683-19.683"/><path fill="#4c4c4b" d="M264.20364,440.19408a19.6825,19.6825,0,1,1,19.683,19.683,19.6825,19.6825,0,0,1-19.683-19.683"/><path fill="#4c4c4b" d="M266.83066,430.37468a19.6897,19.6897,0,0,1,25.618-7.907l6.286-5.247a27.33737,27.33737,0,0,0-25.047-2.412l-4.665,2.421a27.5232,27.5232,0,0,0-7.886,7.767Z"/><path fill="#666766" d="M283.88623,440.19408l-18.717,6.092a19.71819,19.71819,0,0,0,7.131,9.816l12.652-13.694Z"/><path fill="#4c4c4b" d="M267.067,461.76728l5.143-5.566-.017-.175a19.71753,19.71753,0,0,1-7.022-9.741l-7.302,2.377a27.39447,27.39447,0,0,0,9.198,13.105"/><path fill="#303443" d="M266.89258,430.66211l-.35254-.19727a19.92693,19.92693,0,0,1,17.34619-10.15625,19.67052,19.67052,0,0,1,8.96143,2.12989l-.18262.36132a19.26109,19.26109,0,0,0-8.77881-2.08691A19.52247,19.52247,0,0,0,266.89258,430.66211Z"/><path fill="#686b76" d="M301.93506,416.48408a30.36488,30.36488,0,0,0-48.369,29.312,4.49377,4.49377,0,0,0,5.92-1.086,24.41766,24.41766,0,0,1,39.079-23.718s3.87.805,3.37-4.508"/><path d="M279.89505,433.10028a6.0755,6.0755,0,1,0,0,12.151H418.489a10.25267,10.25267,0,0,0,10.254-10.253v-1.09l20.881-26.442-3.284-13.442-32.141,39.076H279.814"/><path fill="#1d1d1b" d="M476.81885,415.05248l.897,9.31a19.649,19.649,0,0,1,7.99,15.832c0,.376-.013.749-.034,1.12l7.003,5.046a27.35188,27.35188,0,0,0-15.856-31.308"/><path d="M466.023,412.83569a27.3585,27.3585,0,1,0,27.358,27.358,27.35851,27.35851,0,0,0-27.358-27.358m0,47.041a19.6825,19.6825,0,1,1,19.683-19.683,19.68252,19.68252,0,0,1-19.683,19.683"/><path fill="#4c4c4b" d="M485.70566,440.19408a19.68251,19.68251,0,1,1-19.683-19.683,19.68253,19.68253,0,0,1,19.683,19.683"/><path fill="#4c4c4b" d="M483.07864,450.01338a19.68976,19.68976,0,0,1-25.618,7.907l-6.286,5.247a27.33737,27.33737,0,0,0,25.047,2.412l4.665-2.421a27.5232,27.5232,0,0,0,7.886-7.767Z"/><path fill="#666766" d="M466.023,440.19408l18.717-6.092a19.71815,19.71815,0,0,0-7.131-9.816l-12.652,13.694Z"/><path fill="#4c4c4b" d="M482.84235,418.62078l-5.143,5.566.017.175a19.71753,19.71753,0,0,1,7.022,9.741l7.302-2.377a27.39489,27.39489,0,0,0-9.198-13.105"/><path fill="#303443" d="M466.02246,460.0791a19.65422,19.65422,0,0,1-8.96-2.12988l.18164-.36133a19.25009,19.25009,0,0,0,8.77832,2.08691,19.52333,19.52333,0,0,0,16.99512-9.94824l.35156.19727A19.927,19.927,0,0,1,466.02246,460.0791Z"/><path fill="#333" d="M484.07184,416.48408a30.36489,30.36489,0,0,0-48.369,29.312,4.4938,4.4938,0,0,0,5.92-1.086,24.41766,24.41766,0,0,1,39.079-23.718s3.87.805,3.37-4.508"/><path fill="#4c4c4b" d="M445.51614,349.94209s-25.937-101.322-27.391-107.721c-1.454-6.4,4.1-8.166,4.1-8.166l4.998-3.324-4.245-8.872-13.519,15.604,29.076,114.708"/><path fill="#1e1e1c" d="M441.00446,351.38348c-.633-2.463-25.066-97.577-25.497-101.309-.437-3.781,2.723-12.061,2.723-12.061s-4.517-4.713-7.62-.876c-.293.363-.298,1.978-.067,4.602l27.991,110.432Z"/><path fill="#e9a48a" d="M310.938 386.88248a41.399 41.399 0 005.278-7.023s9.806 4.045 11.301 8.284l-.582 2.278s-3.878 3.927-5.816 6.254c-1.94 2.327-11.054 3.2-11.054 3.2zM359.41943 416.34838a41.43464 41.43464 0 00-.223-8.782s10.199-2.918 14.002-.524l.958 2.148s-.601 5.486-.676 8.514c-.076 3.028-6.678 9.372-6.678 9.372z"/><path fill="#ef403a" d="M345.87454,312.25358s-.855,12.14-.759,14.66c0,0-11.683,7.806-26.615,45.619,0,0-5.235-3.781-5.381,4.218,0,0,17.016,17.162,17.743,17.162a3.43022,3.43022,0,0,0,2.618-3.491l14.689-13.38,5.817,29.524s-4.144,2.545-2.762,5.527c1.381,2.981,25.887.218,26.033-1.6.145-1.818-.728-2.837-2.182-3.054,0,0,1.019-44.795,6.545-61.375,0,0,7.272-3.587,9.89-15.902a189.16848,189.16848,0,0,0,3.295-19.58s-10.213-24.284-48.931,1.672"/><path fill="#c72932" d="M333.481 390.42158s-7.49-4.023-10.521-9.356c-2.522-4.44-4.459-8.533-4.459-8.533s3.344-4.29 5.017 2.11c1.673 6.399 3.636 9.962 9.963 15.779M394.80524 310.58178a189.17022 189.17022 0 01-3.295 19.58c-2.618 12.315-9.89 15.901-9.89 15.901l6.494-37.299s1.163-3.607 6.691 1.818"/><path fill="#303443" d="M377.77637,339.73926a6.81885,6.81885,0,0,1-.86817-.05567,9.35938,9.35938,0,0,1-5.8789-3.709l.82031-.57129a8.49271,8.49271,0,0,0,5.19336,3.29,7.51978,7.51978,0,0,0,5.84473-2.16211l.65234.75781A8.88163,8.88163,0,0,1,377.77637,339.73926Z"/><path fill="#4c4c4b" d="M470.95856,438.88838l-9.793-36.747c-.022-.088-.056-.171-.082-.257l-12.375-49.86a2.42523,2.42523,0,0,0-2.937-1.769l-7.344,1.823a2.42365,2.42365,0,0,0-1.769,2.937l12.218,49.227a6.294,6.294,0,0,0,.187,1.124l1.327,4.976,1.019,4.107a2.43687,2.43687,0,0,0,.231.583l7.216,27.082a6.26231,6.26231,0,0,0,12.102-3.226"/><path fill="#f6978f" d="M297.816,441.64038h-16.718a2.424,2.424,0,1,1,0-4.848h16.718a2.424,2.424,0,0,1,0,4.848"/><path fill="#c72932" d="M345.11575 326.91378s-7.175 4.796-17.465 25.064c.01.02 10.238 21.278 10.918 33.809l9.601-8.745s-5.84-34.138-3.054-50.128M353.394 403.55248s5.699.687 8.327 1.801c2.629 1.115 13.355 2.085 13.355 2.085-4.618 1.854-6.981 1.926-11.563-.182a15.23608 15.23608 0 00-9.526-.691z"/><path fill="#f6978f" d="M353.394,312.79078s8.63,57.561-2.588,77.631l-2.637-13.38s-5.839-34.138-3.053-50.128l.758-14.66s3.144-3.793,7.52.537"/><path fill="#c72932" d="M345.87454,312.25358s-.129,1.828-.281,4.21c8.456,1.754,24.922-.694,36.318-3.075a20.25184,20.25184,0,0,1,12.386,1.272c.375-2.654.508-4.079.508-4.079s-10.213-24.284-48.931,1.672"/><path fill="#e9a48a" d="M415.83646,221.47237a35.54556,35.54556,0,0,1,16.614-4.485c9.018.073,8.727,16.652,6.109,14.907,0,0-2.327,2.255-3.999,3.709-1.673,1.454-3.201,2.327-5.018.509,0,0,5.744-1.957,2.327-9.051,0,0-7.563-6.656-10.545,4.47l-2.355.136s-6.15-4.474-3.133-10.195"/><path fill="#ef403a" d="M412.356,165.04168s2.618,7.466.776,12.12-4.266.582-4.266,10.084v31.851s5.915-2.473,7.514,3.926c1.6,6.399,4.945,10.181,0,11.781,0,0,.146,20.943-13.38,26.033,0,0,.807,34.517-2.093,45.377-2.901,10.859-6.003.193-18.995,2.908-12.994,2.715-32.578,5.519-39.366,2.081-6.787-3.438-23.9-6.734-23.9-6.734s7.854-32.724,6.545-39.705c0,0-9.114-6.836-6.545-16.532,0,0-9.842-7.174-2.86-29.669a61.10994,61.10994,0,0,1,13.186-15.828c8.654-7.345,9.405-10.351,12.314-16.653s5.235-19.779,12.895-25.209l2.715-13.477a30.84727,30.84727,0,0,1,11.78-3.055c6.982-.436,16.289.727,19.78,5.091,3.491,4.363,15.077,13.865,19.489,14.737Z"/><path fill="#c72932" d="M408.86575,219.0964c-15.949-5.454-33.499-.073-33.499-.073,5.6-3.199,4.218-5.236,2.981-7.708a2.71823,2.71823,0,0,1,.8-3.709l.242-1.066,4.315-5.95,6.351-18.435s3.975-3.055,2.061,31.196c0,0,15.246,3.302,16.749,5.745"/><path fill="#ef403a" d="M328.97223,202.73458c8.653-7.345,9.404-10.351,12.313-16.653,2.91-6.302,5.236-19.779,12.896-25.209l2.715-13.477a72.734,72.734,0,0,1-33.451-11.199s-4.654,10.472-12.072,23.852c-7.417,13.38-44.551,48.673,4.412,58.514a61.12768,61.12768,0,0,1,13.187-15.828"/><path fill="#c58877" d="M438.74023 231.98535l-.36132-.18066c.90039-1.80274-.50977-7.36719-.52344-7.42285l.39062-.10059C438.30664 224.51611 439.707 230.04883 438.74023 231.98535zM436.45313 234.15186l-.35547-.19336c1.21777-2.23633-.90332-7.53467-.92481-7.58789l.375-.15137C435.63867 226.44385 437.76172 231.74854 436.45313 234.15186z"/><path fill="#1e1e1c" d="M433.22516,230.73067a6.00251,6.00251,0,1,1-6.002-6.003,6.00329,6.00329,0,0,1,6.002,6.003"/><path fill="#4c4c4b" d="M431.46735,230.73067a4.24451,4.24451,0,1,1-4.244-4.245,4.24475,4.24475,0,0,1,4.244,4.245"/><path fill="#1e1e1c" d="M429.98685,230.73067a2.764,2.764,0,1,1-2.764-2.765,2.7634,2.7634,0,0,1,2.764,2.765"/><path fill="#fff" d="M396.07663,138.386l-.007-.003c6.819-4.838,5.33-12.803,5.33-12.803-14.761-4.363-20.507,8.58-20.943,11.767a46.12561,46.12561,0,0,0,.197,7.919c3.134.764,5.872,2.001,7.529,3.849h.001s16.489,13.115,22.96,11.079c6.473-2.036,6.061-10.177,6.642-12.746.582-2.57,1.192-6.744,1.192-6.744a60.61305,60.61305,0,0,1-22.901-2.318"/><path fill="#ef403a" d="M380.37845,140.99627s20.062-15.401,30.177-21.227c0,0,3.643-10.188-5.229-15.23-8.871-5.042-16.926-6.504-27.294-6.787-14.349-.391-27.341,18.228-27.536,17.453,0,0,20.676-6.095,22.883,6.981,2.543,15.071,6.999,18.81,6.999,18.81"/><path fill="#c72932" d="M354.18115 160.8728l2.206-4.896s9.162-7.418 19.634-4c10.472 3.417 14.539 17.806 13.016 27.851-1.696 11.199-6.35 21.962-9.647 26.712 0 0 9.793-5.429 13.381-30.154 0 0 2.308-17.162-12.494-25.623a20.44076 20.44076 0 00-12.989-2.597 22.50691 22.50691 0 00-9.326 3.496l-.387-2.618-1.216 1.017zM340.60205 144.53927c.072-.187.119-.284.119-.284s-.806.009-.119.284"/><path fill="#c72932" d="M354.18115,160.8728l2.551-12.662a34.65661,34.65661,0,0,0-6.236-1.604c-.082-.014-.161-.028-.242-.042q-.345-.06-.695-.123c-6.059-1.079-8.266-1.626-8.957-1.902-.427,1.117-1.775,5.58.119,13.715,2.213,9.502,1.05,20.749-3.799,28.7-4.847,7.95-9.695,17.064-15.707,17.452s-16.918-3.347-26.591,4.338c3.648,4.183,10.276,7.63,21.161,9.818a61.12838,61.12838,0,0,1,13.187-15.828c8.653-7.345,9.404-10.351,12.313-16.653,2.91-6.302,5.236-19.779,12.896-25.209"/><path fill="#f6978f" d="M298.45465 192.10567a3.68843 3.68843 0 01-.912-4.038c.905-2.396 3.141-7.075 8.353-13.33 7.757-9.308 8.338-4.654 8.726-1.745.389 2.908-3.296 3.543-5.623 8.558-2.036 4.389-6.894 13.846-10.544 10.555M362.52005 166.98119c-1.381-1.641-3.071-3.649-2.715-5.915.294-1.874 1.851-3.039 3.005-3.878a14.98993 14.98993 0 0111.829-2.424c7.679 1.704 10.83 9.015 11.151 9.793 2.961 7.195-.309 13.554-.97 14.835-1.374 2.662-4.524 7.056-6.884 6.399-.23-.064-.831-.26-2.036-2.618-2.28-4.464-1.789-6.129-3.49-8.436-.997-1.351-1.643-1.201-6.28-4.568a14.24744 14.24744 0 01-3.61-3.188M325.76025 236.7951a7.62467 7.62467 0 01-3.456-5.355c-.119-1.412.278-2.68 1.611-5.002 2.215-3.859 4.511-7.861 9.406-10.566 1.268-.701 5.944-3.284 7.878-1.577 1.06.934.871 2.779.783 3.632-.311 3.031-2.179 3.702-4.195 7.572-1.441 2.77-.738 2.912-2.556 6.679-1.543 3.196-2.377 4.86-4.207 5.517-2.388.858-4.783-.606-5.264-.9M392.63043 106.821a4.86889 4.86889 0 013.084-2.658 5.29233 5.29233 0 013.307.58c2.636 1.062 5.371 2.163 7.511 5.023.555.741 2.601 3.472 1.692 4.846-.498.752-1.683.795-2.231.814-1.944.07-2.533-1.053-5.159-1.988-1.879-.669-1.907-.211-4.45-1.031-2.158-.695-3.285-1.076-3.861-2.176a4.127 4.127 0 01.107-3.41M322.66754 251.77169c-.776.467-.268 2.892.582 4.557.303.593 1.848 3.621 3.781 3.297a2.68555 2.68555 0 002.036-2.328c.097-1.335-1.172-2.295-3.393-3.975-1.53-1.158-2.474-1.871-3.006-1.551M409.25345 220.55047a8.97628 8.97628 0 01-.146 6.545c-.823 1.695-2.546 3.387-9.598 5.236-2.762.723-8.965 2.159-20.361 2.035-9.039-.097-11.63-1.07-13.089-3.053a6.50994 6.50994 0 01-1.164-4.509c.451-3.163 6.042-7.046 10.471-7.781 0 0 17.55-5.381 33.499.073z"/><path fill="#c72932" d="M373.37946 122.18627c2.543 15.071 6.999 18.81 6.999 18.81s6.983-5.361 14.786-10.953a23.43472 23.43472 0 01-8.889-7.954c-4.364-6.836-9.6-11.199-19.199-12.335-7.826-.926-13.91 3.28-15.891 4.866a5.77573 5.77573 0 01-.545.544c1.822-.506 20.639-5.419 22.739 7.022M350.51816 115.22677c.022.005.064-.018.122-.062-.094.025-.143.041-.143.041z"/><path fill="#fff" d="M352.436,116.17449a3.68451,3.68451,0,1,1-3.685-3.684,3.68462,3.68462,0,0,1,3.685,3.684"/><path fill="#bfcbd7" d="M417.13235,152.08758c-7.261,4.035-24.459-2.462-26.786-5.662-2.326-3.199,5.724-8.043,5.724-8.043a13.223,13.223,0,0,0,4.73-6.32,14.09687,14.09687,0,0,0,.609-2.653l-18.917,8.969-1.999,4.805c.048.715.103,1.421.16,2.082,3.134.764,5.873,2.002,7.53,3.849h.001s17.762,14.195,23.687,10.889c5.989-3.341,4.57-5.004,5.261-7.916"/><path fill="#fff" d="M380.38086,143.82422a2.82832,2.82832,0,0,1-1.69531-5.09326c8.30371-6.208,27.95215-20.74756,31.06445-21.67285a2.82812,2.82812,0,0,1,1.61133,5.42187c-2.01074.81738-16.4961,11.21631-29.28906,20.78125A2.81868,2.81868,0,0,1,380.38086,143.82422Z"/><path fill="#303443" d="M371.2168,220.81885l3.90234-2.22949c4.92871-2.81592,4.10059-4.44873,2.9541-6.709l-.17285-.34131a3.2057,3.2057,0,0,1,.98731-4.35986l.51953.85449a2.19945,2.19945,0,0,0-.61231,3.05811l.16992.33642c.98047,1.93311,1.98926,3.9209-.97754,6.41846,5.61426-1.25391,18.8545-3.39063,31.041.77637l-.32422.94629c-15.61426-5.33936-33.0166-.12061-33.19043-.06788Z"/><path fill="#fff" d="M356.89941,150.22314c-.07421,0-.14843-.00293-.22363-.00878a75.58008,75.58008,0,0,1-34.75195-11.63379,2.82811,2.82811,0,0,1,3.042-4.76856,69.91538,69.91538,0,0,0,32.15137,10.76367,2.828,2.828,0,0,1-.21778,5.64746Z"/><path fill="#4c4c4b" d="M310.938 386.88248s-1.648 10.375 3.684 9.987c5.333-.387 8.629-3.393 8.629-1.066s.291 13.865 6.593 19.876c6.303 6.012 10.666 11.732 7.854 14.544-2.812 2.811-10.956 1.454-18.906-4.46-7.952-5.914-8.145-8.326-9.236-10.617-1.091-2.29-5.066-4.799-7.539-5.381-2.472-.582-8.725-4.363-9.647-9.26-.921-4.896 10.859-12.313 18.568-13.623M359.41943 416.34838s5.149 9.156 9.089 5.541c3.939-3.614 4.657-8.018 6.102-6.193 1.445 1.824 8.836 10.688 17.509 11.487 8.673.8 15.646 2.575 15.187 6.525-.458 3.95-7.686 7.943-17.59 8.243-9.905.299-11.555-1.47-13.832-2.589-2.277-1.118-6.951-.617-9.25.463-2.3 1.079-9.55 1.997-13.312-1.269-3.762-3.267.868-16.396 6.097-22.208"/><path fill="#1e1e1c" d="M338.55325 427.75169c-3.139-1.82-10.041.732-16.854-4.17-2.417-1.74-5.977-4.302-7.708-8.726-.749-1.916-1.067-3.957-3.053-5.818a19.69347 19.69347 0 00-4.509-2.617c-4.644-2.304-5.028-2.011-5.817-2.909-2.538-2.889-.705-8.365-.291-9.599a16.62463 16.62463 0 011.856-3.839c-5.574 2.946-10.41 7.228-9.808 10.432.922 4.896 7.176 8.678 9.648 9.26 2.473.582 6.448 3.09 7.539 5.381s1.284 4.703 9.235 10.617c7.95 5.914 16.095 7.271 18.907 4.46a3.00521 3.00521 0 00.855-2.472M407.109 434.53588a41.04617 41.04617 0 01-8.036 2.862c-2.361.524-14.047 3.116-21.331-2.036-1.309-.926-3.347-2.677-6.109-2.617a17.167 17.167 0 00-4.46.969c-2.39.753-2.375 1.109-3.102 1.067-2.69-.155-4.962-5.142-5.817-9.114-.767-3.559-.301-5.849-.602-7.046-4.415 6.432-7.659 17.044-4.329 19.936 3.762 3.265 11.012 2.347 13.311 1.268s6.973-1.581 9.25-.463c2.278 1.119 3.927 2.889 13.832 2.589 9.212-.279 16.105-3.752 17.393-7.415"/><path fill="#4c4c4b" d="M403.53275,441.98508c-5.721,1.425-21.51-.127-23.893,2.104,0,0,32.911.484,35.82-.776,2.908-1.261,4.362-3.102,5.041-8.726.678-5.624,27.337-34.431,27.338-34.431l-.004-.014-1.5-6.111-32.136,39.069h-6.205s1.26,7.459-4.461,8.885"/><path fill="#1e1e1c" d="M464.90384,446.76438a6.26507,6.26507,0,0,0,6.258-6.563c-.028.135-.6,2.653-5.824,2.346-5.37-.314-21.955-78.547-23.506-83.201a16.03779,16.03779,0,0,1-.814-7.911l-2.591.643a2.42384,2.42384,0,0,0-1.768,2.937l12.218,49.227a6.294,6.294,0,0,0,.187,1.124l1.326,4.976,1.02,4.107a2.47612,2.47612,0,0,0,.23.583l7.217,27.082a6.26538,6.26538,0,0,0,6.047,4.65"/><path fill="#f6978f" d="M464.81006,442.61788a2.02019,2.02019,0,0,1-1.949-1.493l-4.558-16.871a2.02031,2.02031,0,0,1,3.901-1.053l4.557,16.87a2.02054,2.02054,0,0,1-1.424,2.477,1.99362,1.99362,0,0,1-.527.07"/><path fill="#303443" d="M389.46875,131.22607l-.57031-.82226c.71679-.4961,17.56054-12.166,19.30371-13.18262l.5039.86426C406.99609,119.082,389.64355,131.10449,389.46875,131.22607Z"/><path fill="#fff" d="M408.86575,219.0964s5.915-2.473,7.515,3.927c1.599,6.399,4.944,10.18,0,11.78a11.8562,11.8562,0,0,0-4.509-7.742Z"/><path fill="#303443" d="M375.48438,273.37305q-7.39161,0-16.22364-.88086a274.1164,274.1164,0,0,1-35.12793-5.99365,3.28383,3.28383,0,0,1,1.59082-6.37208c17.65625,4.4043,66.02832,12.87012,77.67578-.68017a3.28383,3.28383,0,1,1,4.98047,4.28125C402.86426,270.145,391.82813,273.37305,375.48438,273.37305Z"/><path fill="#ffcb5b" d="M410.37946,261.58657c0,3.267-1.273,5.915-2.846,5.915-1.571,0-2.845-2.648-2.845-5.915s1.274-5.915,2.845-5.915c1.573,0,2.846,2.648,2.846,5.915"/><rect width="70.298" height="1" x="266.831" y="125.872" fill="#303443"/><rect width="70.298" height="1" x="201.18" y="225.795" fill="#303443"/><rect width="70.298" height="1" x="140.7" y="177.494" fill="#303443"/><rect width="70.298" height="1" x="174.664" y="370.625" fill="#303443"/><rect width="70.298" height="1" x="232.984" y="327.254" fill="#303443"/><path fill="#e9a48a" d="M419.23584,143.56658c-.001,0-3.389.6-5.425.689,0,0-.221,4.301,3.768,4.57.063-.546.126-1.018.207-1.378a24.79633,24.79633,0,0,1,1.45-3.881"/><path fill="#c72932" d="M398.813,236.73357c-38.843,17.033-70.907,11.927-77.016,3.104-7.617-11.002,2.519-21.943,11.814-32.231s9.4-26.056,9.4-26.056l-.001.001c-.583,1.714-1.142,3.269-1.724,4.53-2.91,6.302-3.661,9.308-12.314,16.653a61.08461,61.08461,0,0,0-13.186,15.828c-5.733,18.47-.126,26.607,2.065,28.929l.795.741s51.868,22.971,97.734-13.429l-2.046-5.199c-2.443,1.149-15.521,7.129-15.521,7.129"/><path fill="#303443" d="M531.36328 469.87988h-131.458a1.5 1.5 0 010-3h131.458a1.5 1.5 0 010 3zM391.36328 469.87988h-11.458a1.5 1.5 0 010-3h11.458a1.5 1.5 0 010 3zM211.36279 469.87988h-3.458a1.5 1.5 0 010-3h3.458a1.5 1.5 0 010 3zM371.36328 469.87988H219.90479a1.5 1.5 0 010-3H371.36328a1.5 1.5 0 010 3z"/><path fill="#fff" d="M404.28766,147.82589c.564-.177,5.564-1.795,10.097.946a9.52311,9.52311,0,0,1,2.964,2.664c.955,1.344,1.012,2.23,1.81,7.694.457,3.129.396,6.337,1.066,9.427.193.893.43,1.847,0,2.169-.689.514-2.587-.965-5.061-2.982-8.876-7.239-8.612-7.924-12.018-10.03-3.534-2.185-5.309-2.37-5.512-3.886-.315-2.348,3.528-5.024,6.654-6.002"/><path fill="#bfcbd7" d="M420.00934,166.79559c-.814.168-2.584-1.208-4.846-3.052-8.876-7.239-8.612-7.924-12.017-10.03-2.09-1.292-3.55-1.884-4.449-2.466a3.39369,3.39369,0,0,0-1.064,2.58c.203,1.516,1.979,1.701,5.513,3.886,3.405,2.106,3.141,2.791,12.017,10.03,2.474,2.017,4.372,3.496,5.061,2.982.432-.323.187-1.282,0-2.169a15.22861,15.22861,0,0,1-.215-1.761"/><path fill="#303443" d="M357.5332 256.00439a105.79949 105.79949 0 01-39.09228-7.3164l.41015-.91211c.51612.23193 51.98389 22.73291 97.02979-12.83789v-.13623h0a11.47736 11.47736 0 00-4.30762-7.33887l.59571-.80273a12.26055 12.26055 0 014.71 8.09716l.001.42432-.001.24072-.18848.14942A93.3806 93.3806 0 01357.5332 256.00439zM316.22656 218.79834l-.88183-.47168a62.23585 62.23585 0 0113.3042-15.97314c7.688-6.52588 9.06689-9.584 11.35058-14.65088.26221-.58155.53613-1.189.832-1.83057a67.40809 67.40809 0 002.332-6.34326c2.23145-6.687 5.00879-15.00977 10.729-19.064l.57812.81543c-5.45361 3.86573-8.17334 12.01612-10.3584 18.56494a67.96993 67.96993 0 01-2.37255 6.44581c-.29493.63867-.56787 1.24365-.82862 1.82275-2.34179 5.19482-3.75488 8.33008-11.61474 15.00244A61.16955 61.16955 0 00316.22656 218.79834z"/></svg>