<svg xmlns="http://www.w3.org/2000/svg" data-name="Layer 1" viewBox="0 0 700 550"><path fill="#edf2fa" d="M206.456 451.13c-34.436-25.878-66.624-75.53-54.988-114.894 9.877-33.414 43.504-33.18 53.294-68.2 11.41-40.82-27.898-63.956-23.965-96.9 9.584-80.27 266.513-140.192 299.036-83.355 23.028 40.247-79.31 116.586-51.055 166.71 25.219 44.744 120.678 8.61 147.954 55.223 22.733 38.846-13.577 115.185-67.441 148.895-28.776 18.009-67.248 16.926-143.006 17.758-83.405.916-125.808.332-159.83-25.236"/><path fill="#afc4db" d="M262.166 185.885H179.64a.5.5 0 0 1 0-1h82.526a.5.5 0 0 1 0 1Z"/><path fill="#afc4db" d="M262.17 185.885h-81.76a.5.5 0 0 1 0-1h81.76a.5.5 0 0 1 0 1ZM262.166 205.885H179.64a.5.5 0 0 1 0-1h82.526a.5.5 0 0 1 0 1Z"/><path fill="#afc4db" d="M212.557 205.748a.5.5 0 0 1-.5-.5v-19.882a.5.5 0 0 1 1 0v19.882a.5.5 0 0 1-.5.5ZM192.558 225.697a.5.5 0 0 1-.5-.5v-19.873a.5.5 0 0 1 1 0v19.873a.5.5 0 0 1-.5.5ZM242.558 225.697a.5.5 0 0 1-.5-.5v-19.873a.5.5 0 0 1 1 0v19.873a.5.5 0 0 1-.5.5Z"/><path fill="#afc4db" d="M261.395 225.885h-81.759a.5.5 0 0 1 0-1h81.76a.5.5 0 0 1 0 1ZM590.8 301.212h-87.063a.5.5 0 1 1 0-1H590.8a.5.5 0 0 1 0 1Z"/><path fill="#afc4db" d="M590.804 301.212H504.55a.5.5 0 1 1 0-1h86.254a.5.5 0 0 1 0 1ZM590.8 322.312h-87.063a.5.5 0 0 1 0-1H590.8a.5.5 0 0 1 0 1Z"/><path fill="#afc4db" d="M538.465 322.167a.5.5 0 0 1-.5-.5v-20.975a.5.5 0 0 1 1 0v20.975a.5.5 0 0 1-.5.5ZM517.365 343.213a.5.5 0 0 1-.5-.5v-20.966a.5.5 0 0 1 1 0v20.966a.5.5 0 0 1-.5.5ZM570.114 343.213a.5.5 0 0 1-.5-.5v-20.966a.5.5 0 0 1 1 0v20.966a.5.5 0 0 1-.5.5Z"/><path fill="#afc4db" d="M589.988 343.412h-86.255a.5.5 0 0 1 0-1h86.255a.5.5 0 0 1 0 1Z"/><path fill="#e4ebf1" d="M561.366 469.793c-.14 12.92-96.971 22.347-216.277 21.057-119.308-1.291-215.911-12.811-215.772-25.731.14-12.919 96.97-22.347 216.278-21.055 119.306 1.29 215.91 12.809 215.77 25.729"/><path fill="#3d1a0c" d="M431.83 425.73H281.224v-36.307a75.303 75.303 0 0 1 150.606 0Z"/><path fill="#d07c2a" d="M240.075 238.908h232.902v203.319H240.075z"/><path fill="#3d1a0c" d="M431.216 425.73H280.61v-36.307a75.302 75.302 0 0 1 75.302-75.302h.001a75.302 75.302 0 0 1 75.303 75.302Z"/><path fill="#a05325" d="M431.216 426.067H280.61v-36.98a75.303 75.303 0 0 1 75.302-75.303h.001a75.303 75.303 0 0 1 75.303 75.304Z"/><path fill="#bc6a3b" d="M240.075 257.664h232.901v1.84H240.075zM240.075 278.641h232.901v1.84H240.075zM240.075 299.619h232.901v1.84H240.075zM240.075 320.596h232.901v1.84H240.075zM240.075 341.574h232.901v1.84H240.075zM240.075 362.551h232.901v1.84H240.075zM240.075 383.528h232.901v1.84H240.075zM240.075 404.505h232.901v1.84H240.075zM240.075 425.483h232.901v1.84H240.075z"/><path fill="#bc6a3b" d="M269.929 238.908h1.84v19.677h-1.84zM306.716 238.908h1.84v19.677h-1.84zM343.502 238.908h1.84v19.677h-1.84zM380.289 238.908h1.84v19.677h-1.84zM417.075 238.908h1.84v19.677h-1.84zM453.861 238.908h1.84v19.677h-1.84zM269.929 279.561h1.84v20.978h-1.84zM306.716 279.561h1.84v20.978h-1.84zM343.502 279.561h1.84v20.978h-1.84zM380.289 279.561h1.84v20.978h-1.84zM417.075 279.561h1.84v20.978h-1.84zM453.861 279.561h1.84v20.978h-1.84zM246.977 258.584h1.84v20.977h-1.84zM283.764 258.584h1.84v20.977h-1.84zM320.55 258.584h1.84v20.977h-1.84zM357.337 258.584h1.84v20.977h-1.84zM394.124 258.584h1.84v20.977h-1.84zM430.91 258.584h1.84v20.977h-1.84zM467.696 258.584h1.84v20.977h-1.84zM269.929 321.516h1.84v20.978h-1.84zM306.716 321.516h1.84v20.978h-1.84zM343.502 321.516h1.84v20.978h-1.84zM380.289 321.516h1.84v20.978h-1.84zM417.075 321.516h1.84v20.978h-1.84zM453.861 321.516h1.84v20.978h-1.84zM246.977 300.538h1.84v20.978h-1.84zM283.764 300.538h1.84v20.978h-1.84zM320.55 300.538h1.84v20.978h-1.84zM357.337 300.538h1.84v20.978h-1.84zM394.124 300.538h1.84v20.978h-1.84zM430.91 300.538h1.84v20.978h-1.84zM467.696 300.538h1.84v20.978h-1.84zM269.929 363.471h1.84v20.977h-1.84zM306.716 363.471h1.84v20.977h-1.84zM343.502 363.471h1.84v20.977h-1.84zM380.289 363.471h1.84v20.977h-1.84zM417.075 363.471h1.84v20.977h-1.84zM453.861 363.471h1.84v20.977h-1.84zM246.977 342.494h1.84v20.978h-1.84zM283.764 342.494h1.84v20.978h-1.84zM320.55 342.494h1.84v20.978h-1.84zM357.337 342.494h1.84v20.978h-1.84zM394.124 342.494h1.84v20.978h-1.84zM430.91 342.494h1.84v20.978h-1.84zM467.696 342.494h1.84v20.978h-1.84zM269.929 405.425h1.84v20.978h-1.84zM306.716 405.425h1.84v20.978h-1.84zM343.502 405.425h1.84v20.978h-1.84zM380.289 405.425h1.84v20.978h-1.84zM417.075 405.425h1.84v20.978h-1.84zM453.861 405.425h1.84v20.978h-1.84zM246.977 384.448h1.84v20.978h-1.84zM283.764 384.448h1.84v20.978h-1.84zM320.55 384.448h1.84v20.978h-1.84zM357.337 384.448h1.84v20.978h-1.84zM394.124 384.448h1.84v20.978h-1.84zM430.91 384.448h1.84v20.978h-1.84zM467.696 384.448h1.84v20.978h-1.84zM246.977 426.403h1.84v15.823h-1.84zM283.764 426.403h1.84v15.823h-1.84zM320.55 426.403h1.84v15.823h-1.84zM357.337 426.403h1.84v15.823h-1.84zM394.124 426.403h1.84v15.823h-1.84zM430.91 426.403h1.84v15.823h-1.84zM467.696 426.403h1.84v15.823h-1.84z"/><path fill="#843f1d" d="M418.915 425.483v-19.138h12.302v-17.258q0-2.805-.205-5.559h-12.097v-19.137h8.153q-.321-.927-.666-1.84h-30.44v-19.138h19.82q-.711-.931-1.45-1.84h-32.204v-19.137h8.85q-1.835-.969-3.73-1.839h-28.071v-6.739q-.918-.039-1.84-.056v6.795H324.58q-1.896.867-3.732 1.84h22.655v19.136h-34.947v-11.03a75.422 75.422 0 0 0-1.84 1.533v9.497h-9.222q-.738.91-1.45 1.84h24.507v19.138h-34.948v-.472q-.441 1.148-.844 2.312h21.957v19.137h-25.901q-.068.918-.113 1.84h3.063v19.138h-3.155v1.84h26.106v19.137H280.61v.583h150.607v-.583Zm11.995-20.977h-34.947v-19.139h34.947Zm-13.835-20.978h-34.947V364.39h34.947Zm-71.733-19.137h34.947v19.138h-34.947Zm11.996 40.115H322.39v-19.139h34.947Zm1.839-19.139h34.947v19.14h-34.947Zm34.947-22.816h-34.947v-19.138h34.947Zm-48.782-40.115h34.947v19.138h-34.947Zm-22.952 20.977h34.947v19.138H322.39Zm-13.834 20.978h34.947v19.138h-34.947Zm-22.953 20.976h34.947v19.14h-34.947Zm57.9 40.116h-34.947v-19.139h34.947Zm36.786 0h-34.947v-19.139h34.947Zm36.786 0h-34.947v-19.139h34.947Z"/><path fill="#f39821" d="M334.16 425.73h43.83c7.692-8.475 11.962-15.428 9.115-28.238-3.226-14.523-15.598-17.75-15.598-17.75.757 3.025-.378 4.514-1.797 5.243a4.8 4.8 0 0 1-5.554-1.014c-7.264-7.28-1.255-16.062-1.255-16.062a13.928 13.928 0 0 0-9.742 2.132c-8.382 5.627-6.502 15.747-4.243 22.072 2.689 7.53-2.151 7.53-2.151 7.53-11.833 0-11.833-11.833-11.833-11.833-10.22 2.15-10.758 10.758-10.758 10.758-.733 15.382 5.764 23.527 9.987 27.163"/><path fill="#ffcb5d" d="M350.53 425.73h17.983c14.309-10.852 11.817-21.17 9.95-25.284a1.335 1.335 0 0 0-2.22-.326c-6.284 7.187-14.073-.035-17.108-1.552-2.502-1.252-2.417 5.265-2.252 8.25a7.914 7.914 0 0 1-1.13 4.652c-1.411 2.242-4.316 4.158-10.065.007-6.958-5.026-8.637-2.827-9.032-1.193a4.068 4.068 0 0 0-.03 1.67c2.35 12.989 13.904 13.777 13.904 13.777"/><path fill="#303443" d="m356.175 411.737-.845-.533a7.368 7.368 0 0 0 1.053-4.36c-.274-4.987.196-7.916 1.396-8.704a1.497 1.497 0 0 1 1.58-.02c.524.261 1.162.672 1.901 1.148 3.605 2.32 9.64 6.202 14.608.522l.752.659c-5.535 6.33-12.278 1.99-15.9-.34-.716-.46-1.334-.858-1.808-1.095-.367-.185-.519-.082-.584-.038-.642.42-1.228 2.695-.946 7.813a8.361 8.361 0 0 1-1.207 4.948Z"/><path fill="#ffcb5d" d="M340.31 371.673s-4.11-6.68 1.226-8.99a.855.855 0 0 1 .774.062l.038.024a3.518 3.518 0 0 1 .535 5.635 13.82 13.82 0 0 0-2.573 3.269M380.236 365.861s5.525 2.176 3.345 6.002a.643.643 0 0 1-.497.313l-.034.004a2.664 2.664 0 0 1-2.886-3.17 10.478 10.478 0 0 0 .072-3.149M392.874 389.194s7.169 2.823 4.339 7.788a.838.838 0 0 1-.645.407l-.044.005a3.458 3.458 0 0 1-3.745-4.113 13.586 13.586 0 0 0 .095-4.087M319.037 406.236s-7.095-2.787-4.522-7.676a.775.775 0 0 1 .613-.4l.043-.005a3.538 3.538 0 0 1 3.804 4.055 13.494 13.494 0 0 0 .062 4.026"/><path fill="#bc6a3b" d="M221.447 213.892h270.159v25.015H221.447zM221.447 425.73h270.159v25.015H221.447z"/><path fill="#a05325" d="M221.447 442.55h270.159v25.016H221.447z"/><path fill="#bc6a3b" d="M202.729 450.409h307.594v25.016H202.729z"/><path fill="#303443" d="M365.998 449.91h125.607v1H365.998zM265.033 238.408h65.475v1h-65.475z"/><path fill="#3d1a0c" d="M431.83 425.73H281.224v-36.307a75.303 75.303 0 0 1 150.606 0Z"/><path fill="#d07c2a" d="M240.075 238.908h232.902v203.319H240.075z"/><path fill="#3d1a0c" d="M431.216 425.73H280.61v-36.307a75.302 75.302 0 0 1 75.302-75.302h.001a75.302 75.302 0 0 1 75.303 75.302Z"/><path fill="#a05325" d="M431.216 426.067H280.61v-36.98a75.303 75.303 0 0 1 75.302-75.303h.001a75.303 75.303 0 0 1 75.303 75.304Z"/><path fill="#bc6a3b" d="M472.978 259.504v-1.84h-17.276v-18.756h-1.84v18.756h-34.947v-18.756h-1.84v18.756h-34.946v-18.756h-1.84v18.756h-34.946v-18.756h-1.84v18.756h-34.947v-18.756h-1.84v18.756h-34.947v-18.756h-1.84v18.756h-29.853v1.84h6.902v19.138h-6.902v1.84h29.854v19.137h-29.854v1.84h6.902v19.137h-6.902v1.84h29.854v19.137h-29.854v1.84h6.902v19.138h-6.902v1.84h29.854v19.137h-29.854v1.84h6.902v19.138h-6.902v1.84h29.854v19.137h-29.854v1.84h6.902v14.905h1.84v-14.905h34.947v14.905h1.839v-14.905h34.947v14.905h1.839v-14.905h34.948v14.905h1.84v-14.905h34.946v14.905h1.84v-14.905h34.946v14.905h1.84v-14.905h34.946v14.905h1.84v-14.905h3.442v-1.84h-17.276v-19.137h17.276v-1.84h-3.442v-19.138h3.442v-1.84h-17.276v-19.137h17.276v-1.84h-3.442v-19.138h3.442v-1.84h-17.276v-19.137h17.276v-1.84h-3.442V301.46h3.442v-1.84h-17.276v-19.138h17.276v-1.839h-3.442v-19.138Zm-77.014 0h34.946v19.138h-34.946Zm0 41.955h34.946v19.137h-34.946Zm0 41.954h34.946v19.138h-34.946Zm0 41.955h34.946v19.138h-34.946Zm-75.413 19.138h-34.946v-19.138h34.946Zm0-41.955h-34.946v-19.138h34.946Zm0-41.955h-34.946V301.46h34.946Zm38.627-61.092h34.946v19.138h-34.946Zm0 41.955h34.946v19.137h-34.946Zm0 41.954h34.946v19.138h-34.946Zm0 41.955h34.946v19.138h-34.946Zm-36.788 0h34.947v19.138H322.39Zm22.953-20.977h34.946v19.138h-34.946Zm11.995-1.84H322.39v-19.138h34.947Zm-11.995-40.115h34.946v19.138h-34.946Zm11.995-1.84H322.39V301.46h34.947Zm-11.995-40.115h34.946v19.138h-34.946Zm11.995-1.839H322.39v-19.138h34.947Zm-36.787 0h-34.946v-19.138h34.946Zm22.952 20.977h-34.947v-19.138h34.947Zm0 41.954h-34.947v-19.138h34.947Zm0 41.955h-34.947V364.39h34.947Zm0 41.955h-34.947v-19.138h34.947Zm1.84-19.137h34.946v19.138h-34.946Zm36.786 0h34.946v19.138h-34.946Zm0-41.955h34.946v19.138h-34.946Zm0-41.955h34.946v19.138h-34.946Zm0-41.955h34.946v19.138h-34.946Zm-133.311-20.977h34.946v19.138h-34.946Zm22.95 20.977h34.947v19.138h-34.946Zm-22.95 20.978h34.946v19.137h-34.946Zm22.95 20.977h34.947v19.138h-34.946Zm-22.95 20.977h34.946v19.138h-34.946Zm22.95 20.978h34.947v19.138h-34.946Zm-22.95 20.977h34.946v19.138h-34.946Zm22.95 20.978h34.947v19.138h-34.946Zm182.094 19.137h-34.947v-19.138h34.947Zm13.834-20.977H432.75v-19.138h34.946Zm-13.834-20.978h-34.947V364.39h34.947Zm13.834-20.977H432.75v-19.138h34.946Zm-13.834-20.978h-34.947v-19.138h34.947Zm13.834-20.977H432.75V301.46h34.946Zm-13.834-20.977h-34.947v-19.138h34.947Zm13.834-20.977H432.75v-19.138h34.946Z"/><path fill="#f39821" d="M334.16 425.73h43.83c7.692-8.475 11.962-15.428 9.115-28.238-3.226-14.523-15.598-17.75-15.598-17.75.757 3.025-.378 4.514-1.797 5.243a4.8 4.8 0 0 1-5.554-1.014c-7.264-7.28-1.255-16.062-1.255-16.062a13.928 13.928 0 0 0-9.742 2.132c-8.382 5.627-6.502 15.747-4.243 22.072 2.689 7.53-2.151 7.53-2.151 7.53-11.833 0-11.833-11.833-11.833-11.833-10.22 2.15-10.758 10.758-10.758 10.758-.733 15.382 5.764 23.527 9.987 27.163"/><path fill="#ffcb5d" d="M350.53 425.73h17.983c14.309-10.852 11.817-21.17 9.95-25.284a1.335 1.335 0 0 0-2.22-.326c-6.284 7.187-14.073-.035-17.108-1.552-2.502-1.252-2.417 5.265-2.252 8.25a7.914 7.914 0 0 1-1.13 4.652c-1.411 2.242-4.316 4.158-10.065.007-6.958-5.026-8.637-2.827-9.032-1.193a4.068 4.068 0 0 0-.03 1.67c2.35 12.989 13.904 13.777 13.904 13.777"/><path fill="#303443" d="m356.175 411.737-.845-.533a7.368 7.368 0 0 0 1.053-4.36c-.274-4.987.196-7.916 1.396-8.704a1.497 1.497 0 0 1 1.58-.02c.524.261 1.162.672 1.901 1.148 3.605 2.32 9.64 6.202 14.608.522l.752.659c-5.535 6.33-12.278 1.99-15.9-.34-.716-.46-1.334-.858-1.808-1.095-.367-.185-.519-.082-.584-.038-.642.42-1.228 2.695-.946 7.813a8.361 8.361 0 0 1-1.207 4.948Z"/><path fill="#ffcb5d" d="M340.31 371.673s-4.11-6.68 1.226-8.99a.855.855 0 0 1 .774.062l.038.024a3.518 3.518 0 0 1 .535 5.635 13.82 13.82 0 0 0-2.573 3.269M380.236 365.861s5.525 2.176 3.345 6.002a.643.643 0 0 1-.497.313l-.034.004a2.664 2.664 0 0 1-2.886-3.17 10.478 10.478 0 0 0 .072-3.149M392.874 389.194s7.169 2.823 4.339 7.788a.838.838 0 0 1-.645.407l-.044.005a3.458 3.458 0 0 1-3.745-4.113 13.586 13.586 0 0 0 .095-4.087M319.037 406.236s-7.095-2.787-4.522-7.676a.775.775 0 0 1 .613-.4l.043-.005a3.538 3.538 0 0 1 3.804 4.055 13.494 13.494 0 0 0 .062 4.026"/><path fill="#a05325" d="M240.075 233.726h232.902v13.018H240.075z"/><path fill="#843f1d" d="M380.289 238.908h1.84v7.836h-1.84zM417.075 238.908h1.84v7.836h-1.84zM343.503 238.908h1.84v7.836h-1.84zM269.929 238.908h1.84v7.836h-1.84zM306.716 238.908h1.84v7.836h-1.84zM453.862 238.908h1.84v7.836h-1.84z"/><path fill="#bc6a3b" d="M221.447 425.73h270.159v25.015H221.447z"/><path fill="#a05325" d="M221.447 442.55h270.159v25.016H221.447z"/><path fill="#bc6a3b" d="M202.729 450.409h307.594v25.016H202.729z"/><path fill="#303443" d="M365.998 449.91h125.607v1H365.998z"/><path fill="#bf6d2b" d="M348.913 306.447a82.396 82.396 0 0 0-82.303 82.304v36.98h14v-36.98a68.303 68.303 0 1 1 136.607 0v36.98h14v-36.98a82.397 82.397 0 0 0-82.304-82.304"/><path fill="#a55c36" d="M266.793 383.527q-.058.918-.098 1.84h14c.031-.617.087-1.227.134-1.84h-6.06V364.39h10.347c.237-.617.474-1.232.727-1.84H270.91c-.207.614-.427 1.22-.619 1.84h2.638v19.137ZM431.034 383.527h-9.12V364.39h5.62c-.191-.62-.412-1.226-.618-1.84h-14.933c.254.608.49 1.223.727 1.84h7.365v19.137h-3.078c.047.613.103 1.223.134 1.84h14a86.127 86.127 0 0 0-.097-1.84M421.915 406.346h9.302v-1.84h-14v1.84h2.858v19.137h-2.858v.248h14v-.248h-9.302v-19.137zM274.769 406.346h5.841v-1.84h-14v1.84h6.319v19.137h-6.319v.248h14v-.248h-5.841v-19.137zM416.292 341.572h-18.057a68.98 68.98 0 0 1 1.705 1.84h17.617a82.113 82.113 0 0 0-1.265-1.84M395 320.596h-32.822v-13.064c-.611-.1-1.225-.188-1.84-.274v13.338h-7.142a67.82 67.82 0 0 1 12.049 1.84h18.044v7.33q.928.541 1.84 1.113v-8.443h12.457a82.299 82.299 0 0 0-2.586-1.84M286.764 360.47a67.482 67.482 0 0 1 1.84-3.74v-13.318h9.282a68.977 68.977 0 0 1 1.706-1.84h-18.058a82.01 82.01 0 0 0-1.264 1.84h6.494ZM309.715 332.865q.91-.64 1.84-1.253v-9.177h21.027a67.833 67.833 0 0 1 12.05-1.84H325.39V309.89q-.924.276-1.84.574v10.131h-20.725a82.257 82.257 0 0 0-2.585 1.84h9.475Z"/><path fill="#843f1d" d="M355.914 313.784h-.001a75.444 75.444 0 0 0-16.761 1.896 75.314 75.314 0 0 1 58.54 73.407v36.98h33.525v-36.98a75.303 75.303 0 0 0-75.303-75.303"/><path fill="#6d3316" d="M418.915 425.484v-19.14h12.302v-17.256a77.189 77.189 0 0 0-.15-4.54c-.02-.34-.051-.68-.076-1.02h-12.076v-19.137h8.137c-.082-.235-.156-.474-.24-.708-.101-.281-.201-.563-.305-.844-.036-.096-.077-.191-.113-.288h-30.431v-19.137h19.807a73.5 73.5 0 0 0-1.445-1.84h-32.197v-19.138h8.827c-.214-.112-.431-.22-.645-.33a74.37 74.37 0 0 0-2.581-1.271c-.173-.081-.35-.16-.525-.238h-28.027v-6.73c-.611-.027-1.225-.035-1.84-.046v6.776h-3.68q1.905.868 3.749 1.839h22.883v18.538q.997 1.2 1.946 2.44h11.889v19.137h-1.258q.345.916.668 1.84h23.54v19.138h-19.598c.044.612.09 1.224.12 1.84h33.314v19.137h-33.217v1.839h19.382v19.139h-19.382v.583h33.524v-.583Z"/><path fill="#924922" d="M438.216 425.73h-14v-36.978a68.303 68.303 0 1 0-136.606 0v36.979h-14v-36.98a82.303 82.303 0 1 1 164.606 0Z"/><path fill="#bc6a3b" d="M221.447 213.892h270.159v25.015H221.447z"/><path fill="#303443" d="M265.033 238.408h65.475v1h-65.475z"/><path fill="#fff" d="M355.391 261.87c-28.772.003-47.819-41.158-50.433-47.14-11.671 12.542-24.697 19.039-38.728 19.317-.308.007-.62.01-.928.01-24.45 0-43.63-19.093-43.824-19.288a.5.5 0 1 1 .711-.703c.19.192 19.091 18.991 43.112 18.991.306 0 .609-.003.916-.01 13.955-.278 26.917-6.86 38.528-19.56a.5.5 0 0 1 .832.148c.213.523 21.65 52.133 54.537 46.855.202-.026 18.73-2.857 37.256-46.791a.5.5 0 0 1 .78-.192 90.264 90.264 0 0 0 29.698 14.9c16.108 4.555 40.26 5.76 63.82-14.37a.5.5 0 0 1 .65.76c-23.908 20.429-48.423 19.193-64.776 14.564a92.375 92.375 0 0 1-29.506-14.67c-18.708 43.999-37.009 46.695-37.782 46.789a30.655 30.655 0 0 1-4.863.39Z"/><path fill="#fff" d="M359.914 276.84c-.532-1.245-5.126-12.26-2.525-15.506a2.777 2.777 0 0 1 2.896-.84 4.377 4.377 0 0 1 3.153 2.224c2.497 4.43-.948 13.71-1.097 14.102l-.935-.352c.034-.092 3.43-9.235 1.16-13.26a3.377 3.377 0 0 0-2.465-1.732 1.847 1.847 0 0 0-1.931.483c-1.89 2.357 1.282 11.258 2.664 14.489ZM280.174 247.13c-.533-1.245-5.127-12.26-2.526-15.507a2.775 2.775 0 0 1 2.896-.84 4.377 4.377 0 0 1 3.153 2.224c2.497 4.432-.947 13.71-1.096 14.103l-.935-.352c.034-.092 3.43-9.235 1.159-13.26a3.377 3.377 0 0 0-2.465-1.733 1.85 1.85 0 0 0-1.932.483c-1.888 2.357 1.284 11.258 2.665 14.49ZM445.64 247.13c-.533-1.245-5.127-12.26-2.525-15.507a2.773 2.773 0 0 1 2.895-.84 4.377 4.377 0 0 1 3.154 2.224c2.497 4.43-.948 13.71-1.097 14.103l-.935-.352c.034-.092 3.43-9.235 1.16-13.26a3.377 3.377 0 0 0-2.465-1.733 1.845 1.845 0 0 0-1.932.483c-1.887 2.356 1.283 11.258 2.664 14.49Z"/><path fill="#f15b43" d="M351.258 282.777v20.79a10.002 10.002 0 0 1-4.318 8.23l-14.486 10.001a10.024 10.024 0 0 0 11.286 16.57l23.254-15.62a10.001 10.001 0 0 0 4.424-8.3v-31.67Z"/><path fill="#cf2633" d="M365.698 308.165c-1.721 6.981-14.722 19.293-34.861 28.737a10.025 10.025 0 0 0 12.904 1.466l23.254-15.62a10 10 0 0 0 4.424-8.3v-31.67h-5.191c.309 9.38.466 21.35-.53 25.387"/><path fill="#fff" d="M371.75 283.292h-20.72a3.707 3.707 0 1 1 0-7.415h20.72a3.707 3.707 0 1 1 0 7.415M335.258 321.885a15.471 15.471 0 0 0-3.419.392 10.017 10.017 0 0 0 11.9 16.09l6.604-4.434a15.477 15.477 0 0 0-15.085-12.048M359.978 316.005a15.394 15.394 0 0 0 3.154 9.337l3.863-2.594a10.002 10.002 0 0 0 4.423-8.301v-13.371a15.474 15.474 0 0 0-11.44 14.929"/><path fill="#f0efef" d="M350.343 333.933a15.438 15.438 0 0 0-3.085-6.312 120.165 120.165 0 0 1-16.422 9.282 10.024 10.024 0 0 0 12.903 1.466ZM365.698 308.165c-.596 2.42-2.548 5.477-5.678 8.833a15.387 15.387 0 0 0 3.113 8.344l3.862-2.594a10 10 0 0 0 4.424-8.3v-13.372a15.443 15.443 0 0 0-5.161 2.511 28.574 28.574 0 0 1-.56 4.578M371.75 275.877h-5.789c.093 2.094.195 4.647.284 7.415h5.505a3.708 3.708 0 1 0 0-7.415"/><path fill="#fff" d="M351.259 287h20.16v1h-20.16z"/><path fill="#f0efef" d="M371.417 287h-4.983l.011 1h4.972Z"/><path fill="#fff" d="M351.259 291.565h20.16v1h-20.16z"/><path fill="#f0efef" d="M371.417 292.566v-1h-4.957c0 .337-.003.669-.006 1Z"/><path fill="#fff" d="M354.344 297.626a1.5 1.5 0 0 0 0-3 1.5 1.5 0 0 0 0 3M361.544 297.746a1.5 1.5 0 0 0 0-3 1.5 1.5 0 0 0 0 3M341.144 321.386a1.5 1.5 0 0 0 0-3 1.5 1.5 0 0 0 0 3M347.984 324.986a1.5 1.5 0 0 0 0-3 1.5 1.5 0 0 0 0 3"/><path fill="#f0efef" d="M368.865 297.866a1.5 1.5 0 0 0 0-3 1.5 1.5 0 0 0 0 3M352.544 331.226a1.5 1.5 0 0 0 0-3 1.5 1.5 0 0 0 0 3"/><path fill="#fff" d="M271.184 251.28v20.79a10 10 0 0 1-4.317 8.23L252.381 290.3a10.025 10.025 0 0 0 11.285 16.571l23.254-15.62a9.999 9.999 0 0 0 4.424-8.302v-31.67Z"/><path fill="#f0efef" d="M285.625 276.669c-1.721 6.981-14.722 19.292-34.861 28.736a10.023 10.023 0 0 0 12.903 1.467l23.254-15.621a9.998 9.998 0 0 0 4.424-8.301v-31.67h-5.19c.309 9.381.465 21.351-.53 25.389"/><path fill="#f15b43" d="M291.677 251.795h-20.72a3.707 3.707 0 0 1 0-7.415h20.72a3.707 3.707 0 0 1 0 7.415M255.184 290.388a15.529 15.529 0 0 0-3.418.392 10.017 10.017 0 0 0 11.9 16.092l6.604-4.435a15.478 15.478 0 0 0-15.086-12.05"/><path fill="#cf2633" d="M270.27 302.437a15.432 15.432 0 0 0-3.085-6.312 120.165 120.165 0 0 1-16.422 9.28 10.024 10.024 0 0 0 12.903 1.468ZM291.677 244.38h-5.789c.093 2.095.195 4.648.283 7.416h5.506a3.708 3.708 0 0 0 0-7.416"/><path fill="#f15b43" d="M273.587 251.648h1v4.068h-1zM277.186 251.648h1v4.068h-1zM280.817 251.648h1v4.068h-1zM284.386 251.648h1v4.068h-1z"/><path fill="#cf2633" d="M288.085 251.648h1v4.068h-1z"/><path fill="#f15b43" d="M271.186 259.921h20.16v1h-20.16zM271.186 264.486h20.16v1h-20.16z"/><path fill="#cf2633" d="M291.344 259.921h-4.983l.011 1h4.972Z"/><path fill="#f15b43" d="M271.186 264.486h20.16v1h-20.16z"/><path fill="#cf2633" d="M291.344 265.486v-1h-4.957c0 .337-.003.67-.006 1ZM272.707 299.067a1.5 1.5 0 0 0 0-3 1.5 1.5 0 0 0 0 3"/><path fill="#f15b43" d="M267.487 293.007a1.5 1.5 0 0 0 0-3 1.5 1.5 0 0 0 0 3M260.707 289.287a1.5 1.5 0 0 0 0-3 1.5 1.5 0 0 0 0 3"/><path fill="#fff" d="M438.043 253.834v20.79a10.002 10.002 0 0 1-4.318 8.23l-14.486 10.001a10.024 10.024 0 0 0 11.286 16.57l23.254-15.62a10.001 10.001 0 0 0 4.424-8.3v-31.67Z"/><path fill="#f0efef" d="M452.483 279.222c-1.721 6.98-14.722 19.293-34.861 28.737a10.025 10.025 0 0 0 12.904 1.466l23.254-15.62a10 10 0 0 0 4.424-8.301v-31.67h-5.191c.309 9.38.466 21.35-.53 25.388"/><path fill="#f15b43" d="M458.536 254.349h-20.72a3.707 3.707 0 1 1 0-7.415h20.72a3.707 3.707 0 1 1 0 7.415M422.043 292.942a15.471 15.471 0 0 0-3.419.392 10.017 10.017 0 0 0 11.9 16.09l6.604-4.434a15.477 15.477 0 0 0-15.085-12.048M446.763 287.062a15.394 15.394 0 0 0 3.154 9.337l3.863-2.594a10.002 10.002 0 0 0 4.423-8.301v-13.371a15.474 15.474 0 0 0-11.44 14.929"/><path fill="#cf2633" d="M437.128 304.99a15.438 15.438 0 0 0-3.085-6.313 120.165 120.165 0 0 1-16.422 9.282 10.024 10.024 0 0 0 12.903 1.466ZM452.483 279.222c-.596 2.419-2.548 5.477-5.678 8.833a15.387 15.387 0 0 0 3.113 8.344l3.862-2.594a10 10 0 0 0 4.424-8.301v-13.371a15.443 15.443 0 0 0-5.161 2.51 28.575 28.575 0 0 1-.56 4.579M458.536 246.934h-5.79c.094 2.094.196 4.647.285 7.415h5.505a3.708 3.708 0 1 0 0-7.415"/><path fill="#f15b43" d="M440.559 258.768a1.5 1.5 0 0 0 0-3 1.5 1.5 0 0 0 0 3M447.279 258.768a1.5 1.5 0 0 0 0-3 1.5 1.5 0 0 0 0 3"/><path fill="#cf2633" d="M454.72 258.768a1.5 1.5 0 0 0 0-3 1.5 1.5 0 0 0 0 3"/><path fill="#f15b43" d="m430.21 285.28-2.178 1.504c3.498.658 12.677 3.372 15.503 13.901l1.741-1.17c-2.843-9.443-10.566-12.965-15.066-14.236"/><path fill="#cf2633" d="m443.536 300.686 1.717-1.153.024-.017a20.253 20.253 0 0 0-3.461-6.728c-.486.415-.991.832-1.507 1.25a18.786 18.786 0 0 1 3.227 6.648M279.458 233.54a1.5 1.5 0 0 0 0-3 1.5 1.5 0 0 0 0 3M359.257 262.94a1.5 1.5 0 0 0 0-3 1.5 1.5 0 0 0 0 3M445.289 232.82a1.5 1.5 0 0 0 0-3 1.5 1.5 0 0 0 0 3"/><path fill="#f15b43" d="M475.583 409.544h69.48v65.881h-69.48z"/><path fill="#cf2633" d="M475.583 414.224h69.48v12.6h-69.48z"/><path fill="#ffcc5d" d="M475.583 442.965h69.479v3h-69.479z"/><path fill="#ffcc5d" d="M508.823 409.544h3v65.881h-3z"/><path fill="#ffcc5d" d="M509.7 410.659a8.671 8.671 0 0 1-2.887-.899 33.871 33.871 0 0 0-7.129-2.284 23.732 23.732 0 0 0-7.188-.526 21.579 21.579 0 0 0-3.494.635 7.346 7.346 0 0 1-4.359.137 8.574 8.574 0 0 1-1.598-.679 7.66 7.66 0 0 1-2.61 1.12 6.399 6.399 0 0 1-4.861-.996 1 1 0 1 1 1.139-1.643 4.37 4.37 0 0 0 3.3.683 5.755 5.755 0 0 0 1.24-.434c-1.242-1.133-2.015-2.527-1.699-3.757a2.688 2.688 0 0 1 2.66-1.918 2.539 2.539 0 0 1 1.763.981 4.329 4.329 0 0 1 .96 3.091 3.444 3.444 0 0 1-.445 1.366 6.484 6.484 0 0 0 .732.272 5.401 5.401 0 0 0 3.295-.164 23.776 23.776 0 0 1 3.79-.687 22.316 22.316 0 0 1 4.498.037 10.26 10.26 0 0 1-2.408-2.12c-2.683-3.505-3.481-5.899-2.443-7.319 1.21-1.656 4.183-1.003 6.313-.368 5.976 1.777 9.175 6.786 11.087 9.78 1.405 2.2 2.517 3.942 1.562 5.116a.623.623 0 0 1-.04.047 1.464 1.464 0 0 1-1.178.529Zm-15.166-14.157c-.777 0-.951.216-.963.233-.007.01-.577 1.012 2.415 4.92 1.17 1.528 5.234 4.063 12.898 6.4-.352-.664-.873-1.478-1.213-2.013-1.876-2.936-4.71-7.373-9.973-8.94a11.66 11.66 0 0 0-3.164-.6Zm-12.474 5.59a.741.741 0 0 0-.568.422c-.099.384.408 1.201 1.3 1.955a1.458 1.458 0 0 0 .157-.51 2.339 2.339 0 0 0-.503-1.593.68.68 0 0 0-.371-.273Z"/><path fill="#ffcc5d" d="M510.947 410.659a1.471 1.471 0 0 1-1.178-.526c-.013-.016-.028-.032-.04-.05-.958-1.174.156-2.917 1.562-5.117 1.912-2.994 5.111-8.002 11.087-9.78 2.13-.634 5.102-1.286 6.312.368 1.04 1.422.24 3.815-2.442 7.318a10.238 10.238 0 0 1-2.41 2.122 22.168 22.168 0 0 1 4.497-.037 23.728 23.728 0 0 1 3.79.687 5.394 5.394 0 0 0 3.299.164 6.557 6.557 0 0 0 .729-.272 3.46 3.46 0 0 1-.444-1.365 4.33 4.33 0 0 1 .96-3.091 2.546 2.546 0 0 1 1.767-.983 2.74 2.74 0 0 1 2.656 1.919c.316 1.23-.457 2.625-1.7 3.757a5.768 5.768 0 0 0 1.243.434 4.376 4.376 0 0 0 3.3-.684 1 1 0 0 1 1.137 1.644 6.41 6.41 0 0 1-4.858.996 7.664 7.664 0 0 1-2.613-1.119 8.656 8.656 0 0 1-1.596.678 7.362 7.362 0 0 1-4.362-.137 21.573 21.573 0 0 0-3.495-.635 23.767 23.767 0 0 0-7.18.524 33.887 33.887 0 0 0-7.135 2.286 8.684 8.684 0 0 1-2.886.899Zm15.164-14.157a11.65 11.65 0 0 0-3.162.6c-5.263 1.566-8.097 6.003-9.972 8.938-.342.537-.862 1.351-1.216 2.015 7.666-2.338 11.73-4.873 12.898-6.398 2.993-3.91 2.424-4.913 2.417-4.922-.012-.016-.186-.233-.965-.233Zm12.478 5.59h-.015a.685.685 0 0 0-.374.274 2.341 2.341 0 0 0-.503 1.593 1.472 1.472 0 0 0 .156.51c.892-.754 1.4-1.571 1.301-1.955a.74.74 0 0 0-.565-.422Z"/><path fill="#f39821" d="M508.839 422.145h2.97v4.68h-2.97zM507.208 442.904h1.631v3.083h-1.631zM527.068 442.904h1.63v3.083h-1.63z"/><path fill="#ffcc5d" d="M528.718 409.544h3v65.881h-3z"/><path fill="#f39821" d="M528.733 422.145h2.97v4.68h-2.97z"/><path fill="#ffcc5d" d="M472.361 409.544h75.925v12.601h-75.925z"/><path fill="#f15b43" d="M111.918 371.21h69.48v104.215h-69.48z"/><path fill="#cf2633" d="M111.918 367.465h69.48v22.227h-69.48z"/><path fill="#ffcc5d" d="M111.918 418.818h69.479v3.984h-69.479z"/><path fill="#ffcc5d" d="M144.666 371.21h3.984v104.215h-3.984z"/><path fill="#f39821" d="M144.648 381.437h4.005v8.256h-4.005zM143.048 418.847h1.631v3.982h-1.631z"/><path fill="#ffcc5d" d="M108.696 365.41h75.925v16.027h-75.925z"/><path fill="#ffcc5d" d="M146.028 366.414a8.681 8.681 0 0 1-2.887-.898 33.89 33.89 0 0 0-7.129-2.284 23.774 23.774 0 0 0-7.188-.527 21.722 21.722 0 0 0-3.494.635 7.348 7.348 0 0 1-4.36.138 8.56 8.56 0 0 1-1.597-.678 7.645 7.645 0 0 1-2.613 1.118 6.419 6.419 0 0 1-4.858-.995 1 1 0 0 1 1.137-1.644 4.361 4.361 0 0 0 3.302.684 5.772 5.772 0 0 0 1.24-.433c-1.242-1.133-2.016-2.528-1.698-3.76a2.672 2.672 0 0 1 2.658-1.916 2.54 2.54 0 0 1 1.763.98 4.334 4.334 0 0 1 .961 3.091 3.45 3.45 0 0 1-.444 1.364 6.17 6.17 0 0 0 .73.275 5.387 5.387 0 0 0 3.296-.164 23.776 23.776 0 0 1 3.79-.687 22.318 22.318 0 0 1 4.498.036 10.22 10.22 0 0 1-2.408-2.12c-2.686-3.5-3.485-5.893-2.444-7.318 1.21-1.656 4.182-1.004 6.314-.368 5.975 1.777 9.174 6.785 11.085 9.777 1.407 2.202 2.52 3.943 1.565 5.12l-.041.047a1.466 1.466 0 0 1-1.178.527Zm-15.166-14.156c-.778 0-.952.217-.964.233-.007.01-.58 1.017 2.416 4.92 1.17 1.527 5.233 4.062 12.899 6.4-.354-.664-.873-1.478-1.215-2.013-1.876-2.937-4.71-7.374-9.972-8.94a11.66 11.66 0 0 0-3.164-.6Zm-12.475 5.59a.737.737 0 0 0-.567.421c-.097.373.42 1.19 1.306 1.945a1.44 1.44 0 0 0 .151-.5 2.341 2.341 0 0 0-.504-1.592.68.68 0 0 0-.371-.273Z"/><path fill="#ffcc5d" d="M147.274 366.414a1.468 1.468 0 0 1-1.178-.526.71.71 0 0 1-.042-.05c-.953-1.175.16-2.916 1.564-5.116 1.912-2.993 5.111-8.002 11.088-9.78 2.13-.635 5.101-1.287 6.312.369 1.037 1.42.239 3.813-2.442 7.316a10.257 10.257 0 0 1-2.41 2.122 22.392 22.392 0 0 1 4.498-.036 23.77 23.77 0 0 1 3.79.687 5.402 5.402 0 0 0 3.297.164 6.384 6.384 0 0 0 .73-.273 3.46 3.46 0 0 1-.444-1.364 4.328 4.328 0 0 1 .958-3.09 2.543 2.543 0 0 1 1.768-.984 2.727 2.727 0 0 1 2.656 1.917c.316 1.232-.457 2.627-1.7 3.76a5.772 5.772 0 0 0 1.242.433 4.366 4.366 0 0 0 3.301-.684 1 1 0 0 1 1.137 1.644 6.405 6.405 0 0 1-4.858.995 7.664 7.664 0 0 1-2.613-1.118 8.553 8.553 0 0 1-1.596.678 7.349 7.349 0 0 1-4.36-.137 21.575 21.575 0 0 0-3.495-.636 23.76 23.76 0 0 0-7.182.526 33.896 33.896 0 0 0-7.135 2.285 8.677 8.677 0 0 1-2.886.898Zm15.165-14.156a11.65 11.65 0 0 0-3.162.6c-5.264 1.567-8.098 6.004-9.974 8.94-.34.534-.86 1.349-1.214 2.013 7.665-2.338 11.729-4.873 12.898-6.398 2.992-3.91 2.423-4.914 2.416-4.922-.012-.016-.186-.233-.964-.233Zm12.477 5.59h-.015a.684.684 0 0 0-.374.274 2.33 2.33 0 0 0-.502 1.592 1.47 1.47 0 0 0 .156.511c.892-.754 1.4-1.571 1.301-1.955a.741.741 0 0 0-.566-.422Z"/><path fill="#82c56d" d="M371.732 60.573c-32.506-7.633-65.352 13.835-73.362 47.949-8.011 34.115 11.848 67.958 44.355 75.59 32.506 7.632 65.353-13.834 73.363-47.95 8.01-34.114-11.85-67.957-44.356-75.59m-20.746 95.4c-18.37-4.314-29.89-22.17-25.73-39.886 4.16-17.711 22.42-28.574 40.793-24.26 18.366 4.312 29.888 22.169 25.73 39.88-4.16 17.715-22.426 28.578-40.793 24.266"/><path fill="#4da258" d="M394.141 100.35c-18.976-23.14-32.227-9.242-32.227-9.242l-.005.009a35.563 35.563 0 0 1 4.14.709c18.365 4.312 29.888 22.17 25.73 39.88-3.447 14.677-16.577 24.64-31.424 25.177.051.009.097.02.148.03 40.301 6.876 52.614-33.423 33.638-56.563M325.256 116.086c1.296-44.137 21.917-55.116 21.917-55.116-.254-.23-.507-.445-.76-.666-22.78 4.837-42.145 23.097-48.044 48.218-7.533 32.081 9.581 63.918 38.681 73.948 8.504-18.308-6.527-21.561-10.774-48.325a31.935 31.935 0 0 1-1.02-18.059"/><path fill="#f15b43" d="M341.375 95.099a1.903 1.903 0 0 0 .63.14 2.578 2.578 0 0 0 .59-.018 3.534 3.534 0 0 0 1.042-.324 5.177 5.177 0 0 0 .899-.543 7.949 7.949 0 0 0 .818-.662 25.512 25.512 0 0 0 2.893-3.25c1.815-2.35 3.512-4.89 5.249-7.42q2.587-3.812 5.28-7.642l.342-.473.408-.54c.289-.373.565-.752.87-1.12a46.899 46.899 0 0 1 1.89-2.156q1.003-1.044 2.094-2.036a37.295 37.295 0 0 1 2.302-1.883c.4-.3.807-.592 1.23-.87q.625-.426 1.28-.821a33.45 33.45 0 0 1 2.71-1.455 27.476 27.476 0 0 1 5.932-1.98 24.283 24.283 0 0 1 12.34.612 22.254 22.254 0 0 1 9.885 6.374 17.084 17.084 0 0 1 1.74 2.344 13.584 13.584 0 0 1 1.292 2.638 8.81 8.81 0 0 1 .57 2.917 3.768 3.768 0 0 1-.914 2.696 3.472 3.472 0 0 0-.972-2.097 8.937 8.937 0 0 0-1.674-1.405 16.843 16.843 0 0 0-1.897-1.06q-.987-.454-1.993-.804a22.893 22.893 0 0 0-7.944-1.257 19.845 19.845 0 0 0-7.03 1.449c-.54.226-1.078.449-1.6.726-.53.252-1.044.55-1.557.853-.514.31-1.022.63-1.52.99-.254.17-.505.348-.751.54-.252.178-.493.382-.741.574-.497.384-.98.804-1.462 1.234-.486.427-.962.879-1.433 1.348q-.716.697-1.405 1.452c-.24.24-.463.506-.697.759l-.792.883a58.856 58.856 0 0 1-7.545 7.11 42.19 42.19 0 0 1-4.404 3.045 30.95 30.95 0 0 1-4.981 2.453 17.468 17.468 0 0 1-5.756 1.234 11.036 11.036 0 0 1-1.557-.095 7.283 7.283 0 0 1-1.536-.406 4.63 4.63 0 0 1-1.341-.822 2.522 2.522 0 0 1-.784-1.232M303.726 93.76a7.27 7.27 0 0 0 .329 3.3 5.58 5.58 0 0 0 .586 1.203 7.507 7.507 0 0 0 .712.963 15.47 15.47 0 0 0 1.646 1.568c.569.487 1.207.966 1.847 1.444 1.28.968 2.668 1.947 4.11 2.987.371.258.736.515 1.09.787.379.258.747.526 1.109.803.377.265.754.544 1.124.822l.599.454.652.503a39.926 39.926 0 0 1 9.299 10.002 25.416 25.416 0 0 1 1.783 3.374 15.754 15.754 0 0 1 1.178 4.083 7.645 7.645 0 0 1-.698 4.685 5.304 5.304 0 0 1-1.404 1.64 6.813 6.813 0 0 1-1.698.943 16.274 16.274 0 0 0-.116-1.8 3.754 3.754 0 0 0-.442-1.366 4.928 4.928 0 0 0-1.662-1.487 49.07 49.07 0 0 0-2.143-1.292l-2.403-1.377c-1.638-.948-3.346-1.941-5.021-3a94.118 94.118 0 0 1-4.991-3.377l-.613-.45-.312-.23-.349-.274c-.464-.37-.933-.723-1.381-1.118q-.68-.593-1.335-1.212c-.439-.425-.86-.873-1.281-1.316a24.114 24.114 0 0 1-4.296-6.458 17.652 17.652 0 0 1-1.257-4.068 12.91 12.91 0 0 1-.023-4.52c.521-3.045 2.672-5.812 5.361-6.215"/><path fill="#cf2633" d="m325.998 133.316-.01-.028c0 .01 0 .021.002.032l.008-.003M319.224 126l2.403 1.376a48.1 48.1 0 0 1 2.143 1.292 7.052 7.052 0 0 1 1.264.972 31.802 31.802 0 0 1 .18-13.353 41.851 41.851 0 0 0-7.684-7.693l-.652-.503-.599-.454c-.37-.279-.747-.557-1.124-.823a25.44 25.44 0 0 0-1.109-.802c-.354-.273-.719-.53-1.09-.787-1.442-1.04-2.83-2.019-4.11-2.988a36.045 36.045 0 0 1-1.847-1.443 15.468 15.468 0 0 1-1.646-1.568 7.504 7.504 0 0 1-.712-.963 5.601 5.601 0 0 1-.586-1.203 7.26 7.26 0 0 1-.33-3.277 66.336 66.336 0 0 0-4.847 12.73 20.811 20.811 0 0 0 .767 2.05 24.098 24.098 0 0 0 4.296 6.458c.421.444.842.892 1.281 1.317.436.414.882.816 1.335 1.212.448.394.917.75 1.381 1.118l.348.273.313.232.613.45a95.345 95.345 0 0 0 4.991 3.377c1.675 1.058 3.383 2.051 5.021 3"/><path d="M313.934 123.422c-5.821-3.698-11.756-7.877-14.746-14.656l.914-.404c2.878 6.524 8.677 10.6 14.37 14.217Z"/><path fill="#f15b43" d="M307.235 159.255a8.768 8.768 0 0 0 1.782 3.59 3.602 3.602 0 0 0 1.193.873 3.545 3.545 0 0 0 1.17.257 11.338 11.338 0 0 0 2.537-.231 33.642 33.642 0 0 0 3.035-.733c2.138-.616 4.394-1.408 6.722-2.237a485.403 485.403 0 0 1 7.235-2.491 323.148 323.148 0 0 1 7.322-2.377c2.499-.761 5.06-1.531 7.854-2.163a45.553 45.553 0 0 1 4.373-.799 25.334 25.334 0 0 1 4.792-.202 14.956 14.956 0 0 1 4.859 1.081 10.353 10.353 0 0 1 3.88 2.746 20.557 20.557 0 0 0-4.097 1.132 20.13 20.13 0 0 0-3.258 1.745c-2.014 1.301-4.01 2.85-6.238 4.357a64.993 64.993 0 0 1-7.155 4.288 54.373 54.373 0 0 1-7.985 3.325 53.598 53.598 0 0 1-8.46 2.034 34.638 34.638 0 0 1-9.383.33 21.226 21.226 0 0 1-5.105-1.186 12.448 12.448 0 0 1-4.967-3.269 8.156 8.156 0 0 1-1.607-2.707 7.318 7.318 0 0 1 1.5-7.363"/><path fill="#cf2633" d="M360.109 153.823a14.937 14.937 0 0 0-4.858-1.08 25.264 25.264 0 0 0-4.793.201 45.246 45.246 0 0 0-4.373.8c-2.793.631-5.355 1.4-7.854 2.162a313.397 313.397 0 0 0-7.322 2.377c-2.41.81-4.812 1.634-7.235 2.49l3.123 12.677a53.488 53.488 0 0 0 8.459-2.034 54.585 54.585 0 0 0 7.985-3.324 65.048 65.048 0 0 0 7.154-4.29c2.23-1.506 4.225-3.056 6.238-4.356a20.102 20.102 0 0 1 3.259-1.745 20.492 20.492 0 0 1 4.098-1.132 10.354 10.354 0 0 0-3.881-2.746"/><path fill="#cf2633" d="M334.217 157.186q-1.662.543-3.309 1.098c-2.41.809-4.81 1.633-7.234 2.49-2.328.829-4.584 1.62-6.723 2.237a33.501 33.501 0 0 1-3.035.734 11.321 11.321 0 0 1-2.535.23 3.71 3.71 0 0 1-.757-.12 59.72 59.72 0 0 0 10.447 10.106 38.192 38.192 0 0 0 5.726-.51 53.653 53.653 0 0 0 8.46-2.035c1.41-.461 2.801-.98 4.165-1.55-.633-4.24-2.77-8.012-5.205-12.68"/><path fill="#f15b43" d="M408.167 105.653a5.46 5.46 0 1 1-4.067-6.564 5.46 5.46 0 0 1 4.067 6.564"/><path fill="#cf2633" d="M314.265 139.193a5.46 5.46 0 1 1-4.067-6.563 5.459 5.459 0 0 1 4.067 6.563"/><path fill="#f15b43" d="M381.824 168.857a5.46 5.46 0 1 1-4.067-6.564 5.458 5.458 0 0 1 4.067 6.564M338.103 85.264a5.46 5.46 0 1 1-4.068-6.563 5.46 5.46 0 0 1 4.068 6.563"/><path fill="#cf2633" d="M329.398 88.29a70.797 70.797 0 0 1 3.68-9.723 5.454 5.454 0 0 0-3.68 9.723"/><path fill="#ffcc5d" d="M358.31 176.503a3.488 3.488 0 1 1-2.599-4.192 3.488 3.488 0 0 1 2.599 4.192M410.193 132.45a3.488 3.488 0 1 1-2.598-4.194 3.488 3.488 0 0 1 2.598 4.193M391.59 88.632a3.488 3.488 0 1 1-2.598-4.193 3.487 3.487 0 0 1 2.598 4.193M358.623 67.241a3.488 3.488 0 1 1-2.598-4.193 3.488 3.488 0 0 1 2.598 4.193"/><path fill="#f39821" d="M318.51 97.232a3.488 3.488 0 1 1-2.6-4.192 3.488 3.488 0 0 1 2.6 4.192M326.519 148.933a3.488 3.488 0 1 1-2.598-4.193 3.488 3.488 0 0 1 2.598 4.193"/><path fill="#e9d495" d="M385.304 155.621a1.59 1.59 0 0 0 0-3.177 1.59 1.59 0 0 0 0 3.177"/><path fill="#fdeba9" d="M342.212 176.608a1.59 1.59 0 0 0 0-3.177 1.59 1.59 0 0 0 0 3.177M363.333 166.103a1.59 1.59 0 0 0 0-3.177 1.59 1.59 0 0 0 0 3.177M410.431 143.783a1.59 1.59 0 0 0 0-3.177 1.59 1.59 0 0 0 0 3.177"/><path fill="#e9d495" d="M399.243 121.36a1.589 1.589 0 0 0 0-3.177 1.589 1.589 0 0 0 0 3.176"/><path fill="#fdeba9" d="M412.226 110.122a1.59 1.59 0 0 0 0-3.177 1.59 1.59 0 0 0 0 3.177M400.744 89.868a1.589 1.589 0 0 0 0-3.176 1.589 1.589 0 0 0 0 3.176M345.154 88.508a1.59 1.59 0 0 0 0-3.177 1.59 1.59 0 0 0 0 3.177M345.579 69.35a1.59 1.59 0 0 0 0-3.177 1.59 1.59 0 0 0 0 3.177M365.084 64.662a1.59 1.59 0 0 0 0-3.177 1.59 1.59 0 0 0 0 3.177"/><path fill="#e9d495" d="M323.444 77.802a1.59 1.59 0 0 0 0-3.177 1.59 1.59 0 0 0 0 3.177M321.038 105.96a1.589 1.589 0 0 0 0-3.177 1.589 1.589 0 0 0 0 3.176M301.971 120.312a1.59 1.59 0 0 0 0-3.177 1.59 1.59 0 0 0 0 3.177M319.226 135.335a1.59 1.59 0 0 0 0-3.177 1.59 1.59 0 0 0 0 3.177M310.725 155.678a1.589 1.589 0 0 0 0-3.176 1.589 1.589 0 0 0 0 3.176"/><path fill="#fdeba9" d="M333.735 154.439a1.59 1.59 0 0 0 0-3.177 1.59 1.59 0 0 0 0 3.177M372.054 180.143a1.589 1.589 0 0 0 0-3.176 1.589 1.589 0 0 0 0 3.176"/><path fill="#e9d495" d="M375.41 90.003a1.589 1.589 0 0 0 0-3.176 1.589 1.589 0 0 0 0 3.176"/><path fill="#4da258" d="m344.782 60.673.345.87 2.047-.573a4.017 4.017 0 0 1 1.618-1.118q-2.022.342-4.01.82"/><path d="m374.28 153.968-.433-.9a31.94 31.94 0 0 0 17.446-21.476c3.118-13.281-2.786-27.271-14.692-34.812l.535-.846c12.266 7.77 18.345 22.191 15.13 35.887a32.928 32.928 0 0 1-17.985 22.147Z"/><path fill="#f15b43" d="M404.5 164.76a20.654 20.654 0 0 1-2.5 4.95 17.43 17.43 0 0 1-3.82 3.99 13.723 13.723 0 0 1-4.84 2.332 9.31 9.31 0 0 1-5.05-.051 13.494 13.494 0 0 0 4.79-6.55 18.162 18.162 0 0 0 .91-6.77 42.335 42.335 0 0 0-3.34-13.58c-.24-.58-.48-1.16-.71-1.75l-.39-.87-.39-.91c-.269-.617-.507-1.251-.755-1.88l-.014.01c-.17-.42-.34-.84-.49-1.27-.16-.43-.31-.85-.46-1.29a42.445 42.445 0 0 1-2.03-9.43 31.287 31.287 0 0 1 .56-9.87 21.53 21.53 0 0 1 1.67-4.73 16.088 16.088 0 0 1 1.29-2.16c.05-.06.1-.13.16-.21a8.764 8.764 0 0 1 .94-1.08c.09-.09.14-.15.14-.15s1.21 3.38 1.4 4.07c.4 1.39.88 2.71 1.37 3.99.24.64.5 1.28.76 1.9.19.46.38.91.58 1.36.13.32.28.65.42.97.47 1.07.95 2.11 1.46 3.16 1.13 2.39 2.34 4.75 3.55 7.12l1.84 3.56.53 1.07.52 1.11c.33.76.66 1.52.95 2.3a35.63 35.63 0 0 1 2.26 9.98 26.544 26.544 0 0 1-1.31 10.68"/><path fill="#cf2633" d="M399.711 136.057c-1.212-2.367-2.422-4.723-3.553-7.117a98.955 98.955 0 0 1-3.222-7.386q-.339-.891-.66-1.807a31.878 31.878 0 0 1-4.666 21.834 51.622 51.622 0 0 0 1.554 3.967l.388.915.388.873c.23.585.474 1.167.712 1.744.193.494.38.984.561 1.474a30.72 30.72 0 0 0 9.308-12.93Z"/><path fill="#cf2633" d="M395.33 133.22s-4.5 9.24-6.938 10.462c-.17-.421-.341-.841-.491-1.271-.16-.43-.31-.85-.46-1.29a42.443 42.443 0 0 1-2.03-9.43 31.287 31.287 0 0 1 .56-9.87 21.528 21.528 0 0 1 1.67-4.73 16.094 16.094 0 0 1 1.29-2.16c.05-.06.1-.13.16-.21.3-.37.72-.84.94-1.08.09-.09.14-.15.14-.15s1.21 3.38 1.4 4.07c.4 1.39.88 2.71 1.37 3.99.24.64.5 1.28.76 1.9.18.46.38.91.58 1.36.13.32.28.65.42.97.36 4.14.63 7.44.63 7.44"/><path fill="#bf6d2b" d="M240.076 403.141h25.195v19.004h-2.52v3.339h-22.675v-22.343z"/><path fill="#a55c36" d="M265.271 404.506h-16.453v-1.365h-1.84v1.365h-6.902v1.84h25.195v-1.84z"/><path fill="#ffcc5d" d="M188.395 409.544h69.479v65.881h-69.479z"/><path fill="#f39821" d="M188.394 412.604h69.479v12.6h-69.479z"/><path fill="#f15b43" d="M214.434 451.485a1.5 1.5 0 0 0 0-3 1.5 1.5 0 0 0 0 3M241.793 454.605a1.5 1.5 0 0 0 0-3 1.5 1.5 0 0 0 0 3M251.154 437.084a1.5 1.5 0 0 0 0-3 1.5 1.5 0 0 0 0 3M203.154 471.885a1.5 1.5 0 0 0 0-3 1.5 1.5 0 0 0 0 3M200.274 431.294a.75.75 0 0 0 0-1.5.75.75 0 0 0 0 1.5M203.394 445.694a.75.75 0 0 0 0-1.5.75.75 0 0 0 0 1.5M197.634 459.374a.75.75 0 0 0 0-1.5.75.75 0 0 0 0 1.5M228.594 431.294a.75.75 0 0 0 0-1.5.75.75 0 0 0 0 1.5M228.594 445.215a.75.75 0 0 0 0-1.5.75.75 0 0 0 0 1.5M231.234 461.055a.75.75 0 0 0 0-1.5.75.75 0 0 0 0 1.5M217.793 467.055a.75.75 0 0 0 0-1.5.75.75 0 0 0 0 1.5M245.394 468.254a.75.75 0 0 0 0-1.5.75.75 0 0 0 0 1.5M215.394 443.685a4.5 4.5 0 1 0-4.5-4.5 4.551 4.551 0 0 0 4.5 4.5M208.194 465.044a4.5 4.5 0 1 0-4.5-4.5 4.55 4.55 0 0 0 4.5 4.5M237.714 440.805a4.5 4.5 0 1 0-4.5-4.5 4.551 4.551 0 0 0 4.5 4.5M252.554 455.204a4.5 4.5 0 1 0-4.5-4.5 4.55 4.55 0 0 0 4.5 4.5M234.834 474.805a4.5 4.5 0 1 0-4.5-4.5 4.55 4.55 0 0 0 4.5 4.5M194.354 444.244a4.5 4.5 0 1 0-4.5-4.5 4.55 4.55 0 0 0 4.5 4.5M221.634 409.544h3v65.881h-3z"/><path fill="#f15b43" d="M185.561 409.544h75.146v12.601h-75.146z"/><path fill="#f15b43" d="M223.071 410.659a8.681 8.681 0 0 1-2.887-.899 33.89 33.89 0 0 0-7.129-2.284 23.734 23.734 0 0 0-7.188-.526 21.579 21.579 0 0 0-3.494.635 7.346 7.346 0 0 1-4.359.137 8.574 8.574 0 0 1-1.598-.679 7.66 7.66 0 0 1-2.61 1.12 6.399 6.399 0 0 1-4.861-.996 1 1 0 1 1 1.139-1.643 4.364 4.364 0 0 0 3.3.683 5.755 5.755 0 0 0 1.24-.434c-1.241-1.133-2.015-2.527-1.699-3.757a2.7 2.7 0 0 1 2.66-1.918 2.539 2.539 0 0 1 1.763.981 4.334 4.334 0 0 1 .96 3.091 3.444 3.444 0 0 1-.445 1.366 6.484 6.484 0 0 0 .732.272 5.401 5.401 0 0 0 3.295-.164 23.776 23.776 0 0 1 3.79-.687 22.243 22.243 0 0 1 4.498.037 10.26 10.26 0 0 1-2.408-2.12c-2.682-3.505-3.481-5.899-2.443-7.319 1.21-1.656 4.182-1.003 6.313-.368 5.976 1.777 9.175 6.786 11.087 9.78 1.406 2.2 2.517 3.942 1.563 5.116l-.041.048a1.466 1.466 0 0 1-1.178.528Zm-15.166-14.157c-.777 0-.951.216-.963.233-.007.01-.577 1.012 2.415 4.92 1.17 1.527 5.234 4.062 12.899 6.4-.353-.664-.874-1.478-1.214-2.013-1.876-2.936-4.71-7.373-9.973-8.94a11.66 11.66 0 0 0-3.164-.6Zm-12.474 5.59a.741.741 0 0 0-.568.422c-.099.384.408 1.201 1.3 1.955a1.458 1.458 0 0 0 .157-.51 2.34 2.34 0 0 0-.503-1.593.683.683 0 0 0-.371-.273Z"/><path fill="#f15b43" d="M224.318 410.659a1.471 1.471 0 0 1-1.178-.526c-.013-.016-.028-.033-.04-.05-.957-1.173.156-2.916 1.56-5.117 1.913-2.993 5.112-8.002 11.089-9.78 2.129-.634 5.103-1.287 6.312.37 1.036 1.417.239 3.809-2.438 7.31a10.267 10.267 0 0 1-2.416 2.128 22.265 22.265 0 0 1 4.5-.037 23.77 23.77 0 0 1 3.79.687 5.388 5.388 0 0 0 3.297.164 6.573 6.573 0 0 0 .73-.272 3.46 3.46 0 0 1-.444-1.365 4.328 4.328 0 0 1 .958-3.09 2.547 2.547 0 0 1 1.767-.984 2.682 2.682 0 0 1 2.657 1.917c.316 1.232-.457 2.626-1.7 3.759a5.787 5.787 0 0 0 1.243.434 4.36 4.36 0 0 0 3.3-.683 1 1 0 1 1 1.138 1.643 6.403 6.403 0 0 1-4.86.996 7.684 7.684 0 0 1-2.612-1.119 8.656 8.656 0 0 1-1.596.678 7.356 7.356 0 0 1-4.36-.137 21.573 21.573 0 0 0-3.495-.635 23.757 23.757 0 0 0-7.184.525 33.86 33.86 0 0 0-7.132 2.285 8.684 8.684 0 0 1-2.886.899Zm15.164-14.157a11.657 11.657 0 0 0-3.162.6c-5.264 1.567-8.098 6.004-9.974 8.94-.34.535-.861 1.349-1.214 2.013 7.665-2.338 11.729-4.873 12.898-6.398 2.99-3.912 2.423-4.913 2.416-4.922-.012-.017-.186-.233-.964-.233Zm12.477 5.59h-.015a.684.684 0 0 0-.374.275 2.332 2.332 0 0 0-.502 1.591 1.477 1.477 0 0 0 .156.511c.892-.754 1.4-1.572 1.301-1.955a.728.728 0 0 0-.566-.422Z"/><path fill="#cf2633" d="M221.609 422.145h2.97v3.06h-2.97z"/><path fill="#a05325" d="M257.874 425.484h4.877v49.941h-4.877z"/><path fill="#bc6a3b" d="M469.031 409.544h3.33v12.601h-3.33z"/><path fill="#a05325" d="M470.696 425.484h4.887v49.941h-4.887z"/><path fill="#303443" d="M453.862 449.91h21.721v1h-21.721z"/><path fill="#cf2633" d="M400.525 166.72a28.213 28.213 0 0 1-1.268-6.597 87.008 87.008 0 0 1-.19-3.602c-.124-3.324-.215-5.726-2.017-7.353-1.384-1.25-3.434-1.682-6.971-1.492.189.47.383.94.574 1.404a42.516 42.516 0 0 1 3.343 13.582 18.392 18.392 0 0 1-.916 6.77 13.565 13.565 0 0 1-4.784 6.553 9.301 9.301 0 0 0 5.042.043 13.566 13.566 0 0 0 4.839-2.327 16.825 16.825 0 0 0 2.912-2.798 8.94 8.94 0 0 0-.564-4.182"/><path fill="#f15b43" d="M370.854 160.098s10.666-9.871 18.998-10.41 6.767 2.369 7.411 10.592c.645 8.223 3.322 8.616.917 12.603-2.405 3.988-5.864 9.166-26.269 2.276-20.406-6.891-1.057-15.061-1.057-15.061"/><path fill="#f6978f" d="m381.504 155.522-.26-.535c.347-.168 8.547-4.11 12.59-2.745l-.19.562c-3.82-1.284-12.057 2.677-12.14 2.718Z"/><path fill="#f15b43" d="M353.297 160.333s-10.926-9.583-19.269-9.899c-8.343-.317-6.702 2.548-7.126 10.786s-3.09 8.701-.58 12.623c2.512 3.922 6.108 9.006 26.322 1.573 20.213-7.434.653-15.083.653-15.083"/><path fill="#cf2633" d="M349.751 164.61a11.506 11.506 0 0 1-6.784-.576 45.98 45.98 0 0 1 4.68 3.572c.796.916-.27 1.002-3.97 1.55 0 0 5.9.6 7.42 4.053ZM374.024 164.286a11.502 11.502 0 0 0 6.766-.757 46.058 46.058 0 0 0-4.583 3.696c-.772.937.297.994 4.01 1.443 0 0-5.882.757-7.308 4.25Z"/><path fill="#f15b43" d="M357.979 175.908s-3.752 4.012-4.015 16.346c0 0-1.633.45-3.833-4.154a13.125 13.125 0 0 0-4.3 3.55s.076-12.432 5.946-17.45Z"/><path fill="#f6978f" d="m347.707 188.293-.59-.064c.031-.283.788-6.938 2.82-8.854l.408.432c-1.876 1.769-2.63 8.42-2.638 8.486Z"/><path fill="#f15b43" d="M365.256 175.718s3.798 3.969 4.202 16.299c0 0 1.638.43 3.785-4.197a13.083 13.083 0 0 1 4.34 3.5s-.218-12.431-6.145-17.38Z"/><path fill="#f15b43" d="M365.256 175.718s3.798 3.969 4.202 16.299c0 0 1.638.43 3.785-4.197a13.083 13.083 0 0 1 4.34 3.5s-.218-12.431-6.145-17.38Z"/><path fill="#f6978f" d="M375.67 187.985c-.008-.068-.84-6.71-2.736-8.456l.403-.438c2.055 1.895 2.888 8.54 2.922 8.822Z"/><path fill="#cf2633" d="M372.494 174.961a10.175 10.175 0 0 0-1.056-1.021l-6.181 1.778a10.1 10.1 0 0 1 1.492 2.466 3.997 3.997 0 0 0 2.822-.151 6.294 6.294 0 0 0 2.923-3.072M351.777 174.2a10.64 10.64 0 0 0-1.368 1.428 6.267 6.267 0 0 0 2.05 1.993c1.448.841 2.588.641 4.255.343a9.261 9.261 0 0 1 1.265-2.056Z"/><path fill="#f15b43" d="M353.421 175.62c-2.625-1.525-3.346-4.763-3.607-5.939-.306-1.373-1.023-4.597.975-6.963a5.616 5.616 0 0 1 4.463-2.09c1.171.107 1.34.683 3.007 1.028a9.097 9.097 0 0 0 3.741-.05c2.695-.549 4.063-1.37 5.965-1.683a4.581 4.581 0 0 1 4.514 1.757c2.848 2.815 2.193 6.87 2.03 7.884-.109.668-.814 5.026-3.977 6.468-1.843.84-2.703-.138-6.634-.446-6.14-.482-7.754 1.615-10.477.033"/><path fill="#cf2633" d="M352.644 175.415s-.305-.109-.825-.284a1.32 1.32 0 0 0-.042-.93c-1.069-.377-6.985-.984-6.985-.984l.001.001c-6.47-1.36-14.692-1.852-15.359 4.198 2.996 2.134 8.425 2.995 20.356-1v.004l1.572-.428-.085-.093c.454-.16.894-.31 1.367-.484M395.166 176.538c-.791-5.76-8.312-5.368-14.59-3.987l.005-.002s-5.796 1.272-8.27 2.136l.006.318c-.255.096-.406.155-.406.155.142.048.27.086.409.133v.005l.766.252.015-.004c13.216 4.294 18.994 3.307 22.065.994"/></svg>