<svg width="192" height="26" viewBox="0 0 192 26" fill="none" xmlns="http://www.w3.org/2000/svg">
    <g clip-path="url(#clip0_724_3139)">
        <path
            d="M89.9581 19.4965C87.9464 15.2637 89.4723 10.4079 93.8857 8.39194C98.3675 6.34918 102.795 8.37855 104.977 12.9798L105.354 13.7634L93.8583 19.0009C95.1447 21.0638 97.6901 22.1488 100.502 20.8695C101.987 20.1931 103.41 18.8469 103.992 17.293L106.469 18.7062C105.614 20.7892 103.78 22.5439 101.433 23.6155C96.9238 25.6717 92.1614 24.1246 89.9581 19.4965ZM95.0968 11.0107C92.3462 12.2631 92.0383 14.9422 92.7499 16.7505L101.152 12.9195C100.242 11.2384 98.0254 9.67118 95.09 11.0107H95.0968Z"
            fill="#060606" />
        <path
            d="M35.3209 16.1008C35.3209 11.2317 38.8311 7.66187 43.8056 7.66187C47.0421 7.66187 48.9511 8.99468 50.1144 10.5284L47.7606 12.6315C46.8437 11.3656 45.5778 10.7628 43.9767 10.7628C41.0139 10.7628 39.0022 12.9663 39.0022 16.1008C39.0022 19.2353 41.0139 21.4723 43.9767 21.4723C45.5778 21.4723 46.8368 20.8025 47.7606 19.5367L50.1144 21.7067C48.958 23.2069 47.0489 24.5732 43.8056 24.5732C38.8311 24.5732 35.3209 20.97 35.3209 16.1008Z"
            fill="#060606" />
        <path
            d="M52.0781 16.1008C52.0781 11.4661 55.2804 7.66187 60.5286 7.66187C65.7768 7.66187 68.979 11.4661 68.979 16.1008C68.979 20.7355 65.7768 24.5732 60.5286 24.5732C55.2804 24.5732 52.0781 20.7021 52.0781 16.1008ZM65.2704 16.1008C65.2704 13.2677 63.6009 10.7628 60.5354 10.7628C57.47 10.7628 55.8004 13.2677 55.8004 16.1008C55.8004 18.9339 57.5042 21.4723 60.5354 21.4723C63.5666 21.4723 65.2704 18.9674 65.2704 16.1008Z"
            fill="#060606" />
        <path
            d="M83.5125 24.1715V21.968C82.2535 23.5687 80.3787 24.5733 78.2301 24.5733C74.0357 24.5733 70.936 21.4389 70.936 16.1009C70.936 10.7629 74.0015 7.66194 78.2301 7.66194C80.3102 7.66194 82.2193 8.55942 83.5125 10.3008V1.92212H84.8742C86.099 1.92212 87.0911 2.89327 87.0911 4.09213V24.1782H83.5125V24.1715ZM83.5125 19.3023V12.9329C82.7256 11.7341 80.9534 10.7629 79.2839 10.7629C76.4237 10.7629 74.6173 12.9999 74.6173 16.1009C74.6173 19.2019 76.4237 21.4724 79.2839 21.4724C80.9534 21.4724 82.7256 20.5079 83.5125 19.3023Z"
            fill="#060606" />
        <path
            d="M129.008 24.1715V13.663C129.008 11.9283 128.221 10.7629 126.285 10.7629C124.684 10.7629 123.185 11.8279 122.467 12.8995V24.1782H118.888V13.6697C118.888 11.935 118.135 10.7696 116.192 10.7696C114.591 10.7696 113.127 11.8681 112.374 12.9062V24.1849H108.795V8.05713H110.157C111.382 8.05713 112.374 9.02828 112.374 10.2271C113.092 9.26269 115.234 7.65527 117.759 7.65527C120.284 7.65527 121.714 8.85414 122.261 10.5888C123.178 9.15553 125.361 7.65527 127.852 7.65527C130.849 7.65527 132.587 9.256 132.587 12.5244V24.1648H129.008V24.1715Z"
            fill="#060606" />
        <path
            d="M134.386 16.1008C134.386 11.4661 137.589 7.66187 142.837 7.66187C148.085 7.66187 151.287 11.4661 151.287 16.1008C151.287 20.7355 148.085 24.5732 142.837 24.5732C137.589 24.5732 134.386 20.7021 134.386 16.1008ZM147.579 16.1008C147.579 13.2677 145.909 10.7628 142.844 10.7628C139.778 10.7628 138.109 13.2677 138.109 16.1008C138.109 18.9339 139.812 21.4723 142.844 21.4723C145.875 21.4723 147.579 18.9674 147.579 16.1008Z"
            fill="#060606" />
        <path
            d="M164.637 24.1715V14.0983C164.637 11.56 163.31 10.7629 161.298 10.7629C159.491 10.7629 157.925 11.8279 157.069 12.8995V24.1782H153.491V8.05713H154.852C156.077 8.05713 157.069 9.02828 157.069 10.2271C158.157 8.9613 160.306 7.65527 162.899 7.65527C166.443 7.65527 168.216 9.5239 168.216 12.8258V24.1715H164.637Z"
            fill="#060606" />
        <path
            d="M28.5742 19.6708C28.5742 23.1669 25.6798 26 22.1081 26C18.5363 26 15.6419 23.1669 15.6419 19.6708C15.6419 16.1747 18.5363 13.3416 22.1081 13.3416C25.6798 13.3416 28.5742 16.1747 28.5742 19.6708ZM22.1081 0.113859H15.7651L22.1081 12.5781L28.451 0.113859H22.1081ZM13.2539 0C5.93927 0 0 5.8135 0 12.9799C0 20.1463 5.93927 25.9598 13.2607 25.9598C13.7534 25.9598 14.246 25.933 14.725 25.8794V0.0803709C14.246 0.0267903 13.7534 0 13.2607 0H13.2539Z"
            fill="url(#paint0_linear_724_3139)" />
        <path
            d="M178.664 15.3642L185.479 8.0571H181.045L173.785 15.8799V4.09214C173.785 2.89327 172.793 1.92212 171.568 1.92212H170.207V24.1782H173.785V19.8381L176.105 17.5007L181.114 24.1715H185.616L178.664 15.3642Z"
            fill="#060606" />
        <path
            d="M189.674 19.624C190.933 19.624 191.993 20.6621 191.993 21.9012C191.993 23.1403 190.933 24.1717 189.674 24.1717C188.414 24.1717 187.347 23.1336 187.347 21.9012C187.347 20.6688 188.408 19.624 189.674 19.624Z"
            fill="url(#paint1_linear_724_3139)" />
    </g>
    <defs>
        <linearGradient id="paint0_linear_724_3139" x1="0" y1="13" x2="28.5742" y2="13"
            gradientUnits="userSpaceOnUse">
            <stop stop-color="#F65A41" />
            <stop offset="1" stop-color="#EC3947" />
        </linearGradient>
        <linearGradient id="paint1_linear_724_3139" x1="187.354" y1="21.9012" x2="192" y2="21.9012"
            gradientUnits="userSpaceOnUse">
            <stop stop-color="#F65A41" />
            <stop offset="1" stop-color="#EC3947" />
        </linearGradient>
        <clipPath id="clip0_724_3139">
            <rect width="192" height="26" fill="white" />
        </clipPath>
    </defs>
</svg>
    